<?xml version="1.0" encoding="utf-8"?>
<!-- Generator: Adobe Illustrator 16.0.0, SVG Export Plug-In . SVG Version: 6.00 Build 0)  -->
<!DOCTYPE svg PUBLIC "-//W3C//DTD SVG 1.1//EN" "http://www.w3.org/Graphics/SVG/1.1/DTD/svg11.dtd">
<svg version="1.1" id="Layer_1" xmlns="http://www.w3.org/2000/svg" xmlns:xlink="http://www.w3.org/1999/xlink" x="0px" y="0px"
	 width="161px" height="161px" viewBox="0 0 161 161" enable-background="new 0 0 161 161" xml:space="preserve">
<path fill="#17ABE5" d="M80.501,160.898c-24.797,0-44.082-6.013-57.318-17.864l-0.53-0.478l-0.719-0.055
	c-7.356-0.605-13.123-6.941-13.123-14.434c0-7.808,7.855-14.5,14.29-14.5c2.395,0,4.772,0.262,7.404,0.816
	c2.956,6.696,7.354,12.848,12.771,17.846c1.314,1.695,8.229,8.134,37.219,8.134c28.843,0,35.558-5.983,36.958-7.884
	c5.547-5.049,10.033-11.277,13.025-18.092c2.629-0.558,5.014-0.82,7.42-0.82c6.436,0.008,14.291,6.699,14.291,14.5
	c0,7.492-5.768,13.828-13.127,14.435l-0.717,0.056l-0.525,0.477C124.58,154.889,105.299,160.898,80.501,160.898"/>
<path fill="#17ABE5" d="M109.03,50.499c-0.427,0.958-0.895,1.936-1.398,2.952c-0.914,1.763-1.066,3.085-1.299,4.752
	c-0.396,2.952-0.822,6.325-5.175,11.825c-3.479,4.429-3.303,6.822-3.09,9.622c0.138,1.569,0.271,3.372-0.271,5.405
	c-0.119,0.381-0.213,0.82-0.313,1.34c-0.583,2.549-1.302,5.73-4.896,8.816c-0.877,0.764-2.234,2.031-3.323,3.007
	c-6.745,6.191-8.084,7.286-9.835,7.286c-1.126,0-2.218-0.635-2.761-1.574c-0.875-1.552-0.117-3.025,0.369-3.854
	c-0.31-0.263-0.853-0.646-1.59-1.127c-2.49-1.609-5.874-3.813-6.707-8.263c-0.816-4.35-3.09-7.91-5.095-11.056
	c-2.021-3.183-3.944-6.173-3.921-9.429c0.037-6.919-3.056-11.403-4.879-14.068c-0.43-0.632-0.778-1.129-1.013-1.57
	c-0.797-1.36-1.497-2.665-2.118-3.892c-14.441,9.486-22.993,25.183-22.993,42.433c0,14.14,6.045,27.787,16.558,37.406l0.232,0.211
	l0.157,0.289c0.041,0.057,5.271,6.594,34.832,6.594c28.065,0,33.993-5.748,34.536-6.361l0.08-0.155l0.326-0.306
	c10.711-9.661,16.832-23.383,16.832-37.678C132.274,76.006,123.433,59.908,109.03,50.499 M115.345,104.256
	c-0.213,0.553-0.543,1.4-1.086,2.395c-0.311,0.498-0.582,1.074-0.99,1.629c-0.367,0.578-0.778,1.207-1.307,1.822
	c-0.248,0.306-0.522,0.631-0.773,0.979c-0.292,0.306-0.604,0.632-0.895,0.956c-0.312,0.325-0.645,0.688-0.973,1
	c-0.371,0.323-0.738,0.647-1.107,0.978c-0.739,0.688-1.594,1.266-2.469,1.896c-0.856,0.689-1.849,1.188-2.837,1.762
	c-0.973,0.637-2.099,1.036-3.19,1.57c-1.065,0.558-2.271,0.863-3.457,1.285c-1.186,0.44-2.432,0.691-3.688,0.998
	c-0.628,0.154-1.269,0.308-1.907,0.441c-0.644,0.094-1.306,0.174-1.966,0.266c-2.679,0.441-5.243,0.463-7.848,0.596
	c-1.365-0.057-2.705-0.115-4.044-0.174c-1.324-0.019-2.646-0.228-3.946-0.399c-0.645-0.079-1.302-0.155-1.942-0.231
	c-0.643-0.135-1.286-0.287-1.907-0.422c-1.261-0.309-2.503-0.518-3.692-0.938c-2.432-0.688-4.663-1.647-6.705-2.701
	c-2.04-1.055-3.865-2.242-5.421-3.508c-0.759-0.632-1.519-1.228-2.14-1.897c-0.311-0.306-0.621-0.613-0.932-0.916
	c-0.273-0.326-0.546-0.636-0.816-0.938c-0.254-0.31-0.524-0.597-0.737-0.903c-0.235-0.287-0.43-0.595-0.643-0.883
	c-0.411-0.533-0.74-1.092-1.029-1.591c-0.605-0.958-0.973-1.778-1.208-2.337c-0.132-0.383-0.232-0.631-0.27-0.769
	c0.176,0.329,0.797,1.382,1.942,2.798c0.348,0.424,0.737,0.922,1.223,1.399c0.235,0.246,0.468,0.498,0.722,0.748
	c0.232,0.271,0.524,0.521,0.816,0.786c0.272,0.269,0.562,0.535,0.872,0.805c0.313,0.268,0.662,0.518,0.992,0.783
	c0.351,0.251,0.684,0.577,1.05,0.824c0.389,0.25,0.759,0.521,1.168,0.787c0.74,0.556,1.631,0.998,2.525,1.515
	c0.212,0.117,0.445,0.251,0.661,0.362c0.232,0.137,0.487,0.229,0.719,0.347c0.486,0.229,0.95,0.438,1.458,0.671
	c1.983,0.862,4.138,1.609,6.45,2.204c1.13,0.364,2.334,0.517,3.521,0.75c0.602,0.112,1.205,0.244,1.826,0.324
	c0.602,0.075,1.224,0.135,1.849,0.209c1.238,0.116,2.486,0.325,3.752,0.325c1.258,0.037,2.507,0.08,3.768,0.117
	c1.306-0.061,2.604-0.098,3.884-0.137c1.348,0,2.529-0.229,3.756-0.342c0.625-0.078,1.228-0.157,1.826-0.212
	c0.605-0.136,1.204-0.25,1.811-0.366c1.201-0.227,2.389-0.42,3.515-0.805c1.132-0.344,2.276-0.611,3.304-1.053
	c1.051-0.424,2.139-0.75,3.09-1.265c0.955-0.5,1.926-0.921,2.779-1.479c0.879-0.518,1.73-1.015,2.491-1.592
	c0.369-0.285,0.733-0.555,1.104-0.82c0.373-0.288,0.684-0.576,1.032-0.844c0.31-0.289,0.64-0.576,0.95-0.824
	c0.295-0.311,0.584-0.577,0.859-0.846c0.562-0.533,1.008-1.111,1.475-1.606c0.448-0.481,0.797-0.999,1.146-1.438
	c0.66-0.898,1.146-1.648,1.459-2.166c0.254-0.457,0.39-0.728,0.408-0.805C115.62,103.451,115.525,103.738,115.345,104.256"/>
<path fill="#17ABE5" d="M83.896,25.227c0.195,0.612,0.402,1.259,0.646,1.918l-2.092,3.081l-0.272,0.406
	c-2.742,0.321-5.29-1.976-5.668-5.125c-0.388-3.15,1.549-5.968,4.291-6.289c0.06-0.008,0.109-0.008,0.167-0.008l0.444,1.628
	c0,0,0.265,0.038,0.845,0.435c0.379,0.262,0.677,0.94,1.031,2.025C83.463,23.842,83.656,24.48,83.896,25.227"/>
<path fill="#17ABE5" d="M80.666,24.346l-0.162,0.242c0-0.059-0.011-0.115-0.02-0.164c-0.062-0.439-0.119-0.941-0.15-1.475
	C80.504,23.385,80.61,23.861,80.666,24.346"/>
<path fill="#17ABE5" d="M107.905,21.061v-0.019c-0.078-0.825-0.291-1.531-0.8-1.859c-1.146-0.805-5.126-1.397-10.416-0.747
	c-5.265,0.65-8.784,1.819-8.784,1.819s-1.845,0.805-1.982,2.512c-0.135,1.705,0.686,4.981,1.982,6.651
	c1.28,1.666,3.016,3.583,7.812,3.583c4.801,0,7.973-0.842,9.524-1.994c1.187-0.861,1.853-3.258,2.218-5.078
	c0.116-0.576,0.191-1.093,0.252-1.495C107.827,23.497,108.003,22.171,107.905,21.061 M93.408,27.98c-1.034,0-1.851-0.827-1.851-1.82
	c0-1.016,0.814-1.823,1.851-1.823c1.011,0,1.845,0.807,1.845,1.823C95.253,27.153,94.419,27.98,93.408,27.98 M110.55,23.765
	c-0.488,1.589-1.031,3.448-1.285,4.235c-0.059,0.152-0.096,0.267-0.113,0.325c-0.275,0.613-0.703,2.355-1.904,3.468
	c-0.72,0.633-1.906,1.476-3.969,2.127c2.141,0.424,3.714,1.379,4.668,2.893c0.831,1.345,1.164,3.049,1.008,5.119
	c1.496-3.564,2.312-7.494,2.312-11.595v-0.019C111.266,28.057,111.015,25.872,110.55,23.765 M80.502,0
	C68.799,0,58.634,6.439,53.426,15.906c3.536-0.096,8.747-0.059,13.431,0.634c8.141,1.186,12.398,2.625,13.506,2.625
	c1.111,0,10.925-2.491,17.374-3.009c3.404-0.287,6.959-0.5,9.645-0.595C102.136,6.267,92.065,0,80.502,0 M84.718,28.153
	c-2.1-4.082-2.039-5.119-4.216-5.04c-2.179,0.096-1.826,0.096-2.684,1.761c-0.837,1.649-3.09,7.304-6.861,8.836
	c-0.972,0.383-1.788,0.671-2.488,0.843c4.822,0.459,5.037,0.576,6.574,1.611c0.385,0.25,0.85,0.574,1.553,0.996
	c0,0,0.348,0.195,0.932,0.365c0.564,0.171,1.361,0.363,2.271,0.363c1.87,0,3.229-0.728,3.229-0.747
	c3.345-1.994,4.369-2.106,9.39-2.609c0.135-0.016,0.289-0.036,0.445-0.055C89.113,33.519,86.236,31.084,84.718,28.153
	 M74.942,22.634c-0.117-1.707-1.771-2.378-1.771-2.378s-3.518-1.169-8.803-1.84c-5.287-0.651-8.96,0.097-10.108,0.882
	c-0.854,0.575-0.951,2.187-0.872,3.642v0.019c0.037,0.516,0.094,1.035,0.157,1.456c0,0.058,0.019,0.116,0.019,0.173
	c0.27,1.705,1.302,5.308,2.817,6.42c1.553,1.151,4.176,1.994,8.979,1.994c4.8,0,6.532-1.917,7.812-3.583
	C74.452,27.749,75.077,24.337,74.942,22.634 M65.906,27.98c-1.033,0-1.848-0.827-1.848-1.82c0-1.016,0.815-1.823,1.848-1.823
	c1.01,0,1.845,0.807,1.845,1.823C67.751,27.153,66.917,27.98,65.906,27.98 M54.866,32.311c-1.497-1.495-2.394-3.392-3.034-5.173
	c-0.25-0.653-0.464-1.306-0.662-1.92c-0.229-0.745-0.427-1.377-0.6-1.916c-0.546,2.207-0.818,4.542-0.837,6.921v0.114
	c0,3.182,0.505,6.248,1.418,9.161c0.098-1.035,0.37-1.917,0.819-2.686c1.01-1.741,2.915-2.739,5.672-2.987
	C56.513,33.442,55.484,32.945,54.866,32.311"/>
<path fill="#17ABE5" d="M106.935,39.401c-0.915-1.438-2.411-2.356-4.437-2.74c-0.715-0.134-1.512-0.21-2.371-0.21
	c-0.74,0-1.534,0.057-2.385,0.152c-2.082,0.27-3.759,0.442-5.113,0.577c-0.156,0.017-0.295,0.038-0.43,0.055
	c-4.74,0.481-5.731,0.594-8.883,2.475c-0.019,0.017-1.301,0.709-3.067,0.709c-0.879,0-1.635-0.191-2.178-0.347
	c-0.527-0.174-0.855-0.345-0.855-0.345c-0.682-0.401-1.108-0.708-1.479-0.939c-1.459-0.996-1.675-1.092-6.24-1.533
	c-0.408-0.037-0.895-0.075-1.377-0.114c-1.421-0.134-3.188-0.306-5.406-0.538c-0.756-0.076-1.456-0.113-2.099-0.113
	c-0.483,0-0.932,0.018-1.361,0.076c-2.623,0.23-4.43,1.189-5.4,2.836c-0.43,0.728-0.681,1.554-0.759,2.531
	c3.729,11.634,14.767,20.064,27.812,20.064c12.167,0,22.583-7.319,26.958-17.745C108.021,42.295,107.713,40.686,106.935,39.401
	 M80.695,49.828c-3.793,0-6.865-2.378-6.865-5.329h13.686C87.516,47.45,84.466,49.828,80.695,49.828"/>
<path fill="#17ABE5" d="M106.949,39.401c-0.915-1.438-2.411-2.356-4.437-2.74c-0.717-0.134-1.512-0.21-2.371-0.21
	c-0.74,0-1.534,0.057-2.385,0.152c-2.082,0.27-3.759,0.442-5.113,0.577c-0.156,0.017-0.295,0.038-0.43,0.055
	c-4.74,0.481-5.731,0.594-8.883,2.475c-0.019,0.017-1.301,0.709-3.067,0.709c-0.879,0-1.635-0.193-2.178-0.345
	c-0.527-0.176-0.855-0.347-0.855-0.347c-0.682-0.401-1.108-0.708-1.479-0.938c-1.459-0.996-1.675-1.092-6.24-1.534
	c-0.408-0.037-0.896-0.075-1.377-0.114c-1.421-0.134-3.188-0.306-5.406-0.538c-0.756-0.076-1.459-0.113-2.099-0.113
	c-0.483,0-0.933,0.018-1.361,0.076c-2.623,0.23-4.43,1.189-5.4,2.836c-0.43,0.728-0.681,1.554-0.759,2.531
	c-0.176,2.108,0.426,4.79,1.844,8.048c0.737,1.707,1.691,3.549,2.858,5.56c0.195,0.345,0.502,0.784,0.854,1.321
	c1.731,2.511,4.938,7.189,4.916,14.259c-0.015,2.454,1.541,4.889,3.349,7.706c1.96,3.084,4.179,6.573,5.032,11.021
	c0.621,3.313,3.244,5.02,5.346,6.397c2.544,1.647,3.068,2.244,2.271,3.546c-0.504,0.787-0.721,1.323-0.445,1.803
	c0.139,0.248,0.505,0.441,0.775,0.441c0.8,0,2.199-1.112,7.814-6.27c1.224-1.109,2.371-2.146,3.132-2.814
	c2.854-2.477,3.419-4.982,3.924-7.207c0.099-0.439,0.19-0.883,0.312-1.32c0.426-1.554,0.312-2.992,0.213-4.372
	c-0.23-2.739-0.465-5.577,3.289-10.347c3.707-4.678,4.06-7.399,4.389-10.044c0.234-1.611,0.427-3.125,1.421-5.079
	c0.892-1.724,1.591-3.314,2.142-4.81c0.756-2.07,1.223-3.909,1.338-5.519C108.036,42.295,107.728,40.686,106.949,39.401 M87.53,44.5
	c0,2.952-3.05,5.329-6.82,5.329c-3.793,0-6.865-2.376-6.865-5.329H87.53z"/>
<path fill="#17ABE5" d="M77.104,25.583c-0.194,0.612-0.401,1.26-0.646,1.918l2.092,3.081l0.273,0.407
	c2.741,0.321,5.289-1.975,5.668-5.125c0.387-3.15-1.55-5.969-4.291-6.29c-0.06-0.008-0.108-0.008-0.166-0.008l-0.444,1.628
	c0,0-0.265,0.038-0.845,0.435c-0.381,0.262-0.679,0.94-1.032,2.025C77.537,24.199,77.343,24.837,77.104,25.583"/>
</svg>
