<svg xmlns="http://www.w3.org/2000/svg" viewBox="0 0 287.6 307.3" class="svg-portrait"><defs><style>.a{fill:#64b9d5;}.b{fill:#08090f;}.c{fill:#3a353d;}.d{fill:#6f677a;}.e{fill:#516a82;}.f{fill:#2f5767;}.g{fill:#5f4a4b;}.h{fill:#080b0d;}.i{fill:#1a1b23;}.j{fill:#111319;}.k{fill:#323755;}.l{fill:#ad6c4d;}.m{fill:#af6359;}.n{fill:#1a1a19;}.o{fill:#89626c;}.p{fill:#765555;}.q{fill:#030308;}.r{fill:#5aceef;}.s{fill:#9c6060;}.t{fill:#567a93;}.u{fill:#3d8a9f;}.v{fill:#5496ad;}.w{fill:#76abc1;}.x{fill:#131e19;}.y{fill:#c66d67;}.z{fill:#212020;}.aa{fill:#895656;}.ab{fill:#5c4640;}.ac{fill:#ba8757;}.ad{fill:#928695;}.ae{fill:#4a3334;}.af{fill:#e06052;}.ag{fill:#b17376;}.ah{fill:#12110e;}.ai{fill:#376d85;}.aj{fill:#060305;}.ak{fill:#070506;}.al{fill:#44424a;}.am{fill:#936b4b;}.an{fill:#a5929c;}.ao{fill:#ae6d58;}.ap{fill:#1c1b1b;}.aq{fill:#8b9aaf;}.ar{fill:#513e41;}.as{fill:#856c5f;}.at{fill:#90788b;}.au{fill:#060407;}.av{fill:#27171e;}.aw{fill:#3c2924;}.ax{fill:#804f43;}.ay{fill:#994f3d;}.az{fill:#8f899a;}.ba{fill:#0d0e0d;}.bb{fill:#6c606f;}.bc{fill:#281d1a;}.bd{fill:#918298;}.be{fill:#6d758a;}.bf{fill:#e17d56;}.bg{fill:#686672;}.bh{fill:#7b4b56;}.bi{fill:#1a1716;}.bj{fill:#8c7766;}.bk{fill:#7c7688;}.bl{fill:#202024;}.bm{fill:#201e1d;}.bn{fill:#b48d40;}.bo{fill:#874044;}.bp{fill:#221a13;}.bq{fill:#0f1419;}</style></defs><title>prisma_portrait_round_crop</title><path class="a" d="M220.4,302.3c2.2,10.2-30.5,1.3-28.6,3.9-4.5-6.3,5.3-10.9,6.2-16.9.3-2.1,13.8-31.1,16.3-28.9S202.4,309.1,220.4,302.3Z" transform="translate(0 -0.3)"/><path class="b" d="M75.6,306.5c-12.6-6.9,13.6-63.7,5-72.1,0,.2,9.7-8.8,10.9-8.7C98.4,228.5,75.8,306.5,75.6,306.5Z" transform="translate(0 -0.3)"/><path class="c" d="M206.3,274.4c.3,3.6-13.7,30.4-16.6,30.7s6.8-22.9,5-18.2c-4.2,11.2-13.4-4.6-9.4,17.3,1.3-2.2-16.1,2.2-16.3,2.2C160.2,296.8,205.4,264.7,206.3,274.4Z" transform="translate(0 -0.3)"/><path class="d" d="M189.4,304.3c.1.1,8.1-11.4,5.6-8.9-3.4,19.7-2.6,4.8,22.1,11H176.5C174.6,294.6,186.1,306.4,189.4,304.3Z" transform="translate(0 -0.3)"/><path class="e" d="M153.5,306.5c-2.3,0-40.4,1.9-40.7-1S154.1,305.8,153.5,306.5Z" transform="translate(0 -0.3)"/><path class="e" d="M77.8,306.5c3-2.5,25.5-4.1,32.3-2.8C112.9,306.2,79.1,306.5,77.8,306.5Z" transform="translate(0 -0.3)"/><path class="f" d="M106.8,306.5c.9-1.6,6.4-5.9,7.5-3.2s-.3,1.6,1.6,3.2Z" transform="translate(0 -0.3)"/><path class="g" d="M153.5,306.5c-.4-4.9,15.4-2.8,15.5,0Z" transform="translate(0 -0.3)"/><path class="h" d="M44.4,282.7c4.2,1.6-6.9-13.1-7.1-15.3,2.2,18.8,26.8,2.4,31.2,2.6C66.8,271.5,47.4,284.9,44.4,282.7Z" transform="translate(0 -0.3)"/><path class="i" d="M75.6,297.8c2.5-3.8-.5-12.8,1.4-17.6s12.7-39,11.5-40.7c-7.2-10-54.2,3.5-88.5,24a183.6,183.6,0,0,0,27.5,28.9c1.5-5.1,15-7.8,16.9-9.6l3.2-1.4c4.1-2.7,7.4-4.7,8.1-4.4a74,74,0,0,1-8.1,4.4c-6.2,4.1-14.2,10.1-18.1,12.8a183,183,0,0,0,18.8,13.6C61.5,306.3,71.8,303.4,75.6,297.8Z" transform="translate(0 -0.3)"/><path class="j" d="M287.6,267.3c-33.1-17.2-73.9-33.5-73.8-33.7-9.1,17.6,15.2,46.2,8.3,67.6,3.8,1.9,12.4,3.5,23.2,4.6A183.5,183.5,0,0,0,287.6,267.3Z" transform="translate(0 -0.3)"/><path class="k" d="M47.6,281.3l-3.2,1.4c-1.9,1.8-15.4,4.6-16.9,9.6l2,1.7C33.4,291.4,41.4,285.5,47.6,281.3Z" transform="translate(0 -0.3)"/><path class="l" d="M87.2,71.1c-5.4,8.1,1.6-45.4,10.9-49.5,11-.9-3,20.3-2.8,19.7s3.7.8,3.7,1.4-7.9,8.6-8.3,8.8c22.2-8.8,51.7-14.9,75.7-11.8,0,0,47.6,9.8,35.8,19.1,3.8-1.7-41-13.9-47.6-13.7-8.2.3-36.8,1-41.4,3C96,55.7,101.4,61.8,87.2,71.1Z" transform="translate(0 -0.3)"/><path class="m" d="M144.1.9c7.1,1.7,42.9.3,42.6,14.4,3.4-3.8-13.5,12.2-6.7,9.9q-2.6-1.7-1.8-5.4c.1.4-2.2,7.5-3.6,7S165.5,9.9,156.9,6.2c4.9,1.3,7.5,13.3,1.6,11.8s-10-8.5-15.8-10c3.1,7.7-10.5-5.5-11-5.9S142.6-.4,144.1.9Z" transform="translate(0 -0.3)"/><path class="n" d="M81.1,105c0-2.1,3.6-44.2,11.7-39.4-3.2-1.9-1.4,38.6-2.8,38.8-3.8.5-3.1-6.3-3.4-8.1.5,15.2,1.7,14.4-5.6,12.4" transform="translate(0 -0.3)"/><path class="c" d="M188.9,15.5c.9.4,12.1,5.2,8.9,10-6.4,1.8-4.2-5.1-12.9.7q-3-3.1-1.4-7.9c-.2,8.9-4.1-4-4.3-4.3S187.2,15.4,188.9,15.5Z" transform="translate(0 -0.3)"/><path class="o" d="M200.6,24.6c.3,3.3-9.8,11.9-12.2,10.4s9.4-9.9,9.7-13" transform="translate(0 -0.3)"/><path class="c" d="M86.6,54.4c3-7,8.2-47.6,24.1-42.3C106.7,6.1,86.7,53.9,86.6,54.4Z" transform="translate(0 -0.3)"/><path class="p" d="M89.4,93.8c-1.5-9.9.7-18.7,3.2-28q-1.5,5.5-5.3,5.3c.2-1.5,5.8-8.9,7.5-10.7C95.9,63.3,89.4,93.8,89.4,93.8Z" transform="translate(0 -0.3)"/><path class="q" d="M202.2,220.6c1.5,4.8,10.7,10.1,14.4,13.5-4.4,18.9,17.1,50,4.6,71.1-1.5-16.8-1.6-36.9-10.2-51.4.3.5-.9,7.8-2.1,7.7C216.5,261.7,195.2,207.2,202.2,220.6Z" transform="translate(0 -0.3)"/><path class="r" d="M216.5,264.2c3.4,11.4-2.2,39.9-2,40.8C214,303,213.5,259.3,216.5,264.2Z" transform="translate(0 -0.3)"/><path class="k" d="M252.7,288.1c0-.7,11.8-14,13.4-10.2S252.1,288.3,252.7,288.1Z" transform="translate(0 -0.3)"/><path class="s" d="M222.1,49.5c-9,7.6-14.9-4.7-15-6.1C206.6,34.8,223.2,50,222.1,49.5Z" transform="translate(0 -0.3)"/><path class="c" d="M209.6,252.8c.3,6.2-3.3,10.2,0,4.7,3.2,1.8-3.1,16-3.3,16.9-3-7.7-13.9,5.1-13,6.1C198.7,286.6,207.9,253.5,209.6,252.8Z" transform="translate(0 -0.3)"/><path class="t" d="M209.3,265.3c.1-.8,1.1-11.9,4.7-6.4C216.4,262.1,211.5,262,209.3,265.3Z" transform="translate(0 -0.3)"/><path class="a" d="M112.6,302.1c-4.5,2.2-38.4,11.3-33.4-2.2,20.8.8,9-16.1,3.4-28.7.2-2.5.1-1.9.3-4.2,0,.4,22,27.5,22.9,34.4-1.4-2.4-20.5-43.5-17.1-42s4.8,2.9,7.4,4.1c-.6-.5-4.1-11.1-3.9-11.9C116.5,232.2,129,308.6,112.6,302.1Z" transform="translate(0 -0.3)"/><path class="a" d="M82.8,271.4c4.6-7.8,12,17.9,13.2,17.6-1.9.6-6,15-9.5,15.3C76.8,305.1,76.3,278.5,82.8,271.4Z" transform="translate(0 -0.3)"/><path class="r" d="M102.7,252.8c-2,9.5-13.2-13.3-12.6-11.4-3.3-10.9,5.8-25.1,13.4-31C86.1,214.5,103.9,251.3,102.7,252.8Z" transform="translate(0 -0.3)"/><path class="f" d="M87.7,254.3c1.1,6.3,7.4,6.2,10.6,10.7C91.7,264.5,83.5,260.9,87.7,254.3Z" transform="translate(0 -0.3)"/><path class="u" d="M94.9,254.6c-2.5-2.6-10.3-9.4-4.4-22.4C90.5,225.9,88,256.4,94.9,254.6Z" transform="translate(0 -0.3)"/><path class="k" d="M87.2,256.2c0,4.6,1.3,9.1,1.5,13.4C88.4,262.7,81.2,265.1,87.2,256.2Z" transform="translate(0 -0.3)"/><path class="t" d="M85,262.9c-.4,6-1.7,2.9-1.9,4.3C82.4,273.3,83.2,260.6,85,262.9Z" transform="translate(0 -0.3)"/><path class="t" d="M82.8,271.4a53.1,53.1,0,0,1-1.7,15.2C81.1,285.4,82.7,264.7,82.8,271.4Z" transform="translate(0 -0.3)"/><path class="a" d="M207.2,264c-1.5,9-20.7,21.6-30.8,21.8q5.2,2,.4,7.2c-11.3-5.9,17.1-42,23.4-48.8q6,1.3,4.6,8.1c0-.4,2.9-3.4,2.7-3.4C211.7,249,204.4,262.6,207.2,264Z" transform="translate(0 -0.3)"/><path class="r" d="M171.4,288.2c3.3-2.1,8.2,17.9-8.9,17.9C159.2,306.2,168.6,287.3,171.4,288.2Z" transform="translate(0 -0.3)"/><path class="v" d="M189.4,304.3c-1.8,4.1-10.8-4.2-8.7-6.5s7.6-11.5,13.5-12.8C196.7,284.4,189.4,303.3,189.4,304.3Z" transform="translate(0 -0.3)"/><path class="g" d="M188.3,298.2c-1.3-.5-6.8-.7-7.1,1.1-9.2-5.2,3.1-11.4,4.6-11.7s2.5,8.2,1.5,8.4a3.6,3.6,0,0,1-1.3-2.6C185,296.7,182.4,295.5,188.3,298.2Z" transform="translate(0 -0.3)"/><path class="w" d="M113.7,304.3c7-10.3,10.6-24.8,24.8-24.5-3.6-.8-26.1-8-13.3-7.1,1.5.5-14.4-5.6-8.9-7.9.9-.1,30.3,9.9,29.3,15-5.7,5.3-5.6,24.1,6.9,21.6C157.5,304.5,114,310.1,113.7,304.3Z" transform="translate(0 -0.3)"/><path class="x" d="M153,303.2c-1.3-3.7-9.4-22.3-6.5-22.7C151.1,282.7,156.3,306.2,153,303.2Z" transform="translate(0 -0.3)"/><path class="c" d="M117.3,299.9c-11.7,10.1,4.4-20.5,8.9-20.6S118.9,298.7,117.3,299.9Z" transform="translate(0 -0.3)"/><path class="y" d="M153.8,303.5s-20.1-37.9-6.7-39C169.1,262.7,155.2,312.6,153.8,303.5Z" transform="translate(0 -0.3)"/><path class="c" d="M161.3,302.6c1.3-2.8,14.4-27.6,17.5-24.9C176.5,283.4,161,298,161.3,302.6Z" transform="translate(0 -0.3)"/><path class="z" d="M202.2,39.2c-7.8,1.3,11.2-1.9,10.5-1.2s-29.1,13.7-25.1,1.4l9.2-3.5c1.7-.2-6,1.8-6.3.2s9.7-2.9,11-4.9c-21.8,17.2-23.6,5.3-21.4-14.7a10.6,10.6,0,0,0,1.6,4.5c1.3.1.3-4,1.7-4.1q2.9,3.4.9,8.4c-.4,2.5,7-5.2,8-2.9s-8,4.6-8.6,6.1q4.6-5.2,8.3-2.3-.7,3-4.5,3.7c2-1.9,9.9-4.7,10-4.3s-11.3,7.9-8.9,9.1,12.9-6.8,12.2-10.2c1,4.7,3.7,6.3,3.6,11.1" transform="translate(0 -0.3)"/><path class="y" d="M202.2,58.6c-.1.6-31.3,29.7-35.8,15.2-3.3-10.8,17.7-8.9,19.7-11.2.3-.3-1.8-12.4-2.9-10.3C188.1,50.5,192.5,64.7,202.2,58.6Z" transform="translate(0 -0.3)"/><path class="y" d="M202.2,58.6c-1.1,6.4-33.7-11.7-34-12.4C176.6,31.9,196.1,54.3,202.2,58.6Z" transform="translate(0 -0.3)"/><path class="s" d="M99.9,29.1c-3.2-7.6,1.1-6.4,9.7-2.5-1.9-1.6-1.9-4.2.8-2.4a16,16,0,0,1-4.3-5.1c.8-7.3,27.2,11.5,15.8,9.3,1,.2,7.1,3.1,5.1,4.8C120.6,37.1,102.7,30.1,99.9,29.1Z" transform="translate(0 -0.3)"/><path class="aa" d="M94.9,49.2c2.9-6.1,1.9-.9,12.8-7.1-5.3,1.5-8-.3-12.5-.4-.5-1.5,9.5-2.7,10.4-2.9-4.1-.5-1.5-4.4,2.5-1.4a5.5,5.5,0,0,1-4.8-3c.3-2,18.7-3.1,18.8-.2s-11.3,2.3-10.8,2.5,7.9.8,8.9,1.9-6.6,2.5-6.5,3.4a46.8,46.8,0,0,0,12.5-.7,12.1,12.1,0,0,1-8.7-1.3c2.7-1.1,17.3-2.1,18.5-.3,2.7,4.3-6.4-2.5-1,2C133.1,42.7,95.8,50.2,94.9,49.2Z" transform="translate(0 -0.3)"/><path class="c" d="M187.8,39.6c.1,1.2,33.9,12.5,30.5,19.8C209.6,64.1,184.6,37.4,187.8,39.6Z" transform="translate(0 -0.3)"/><path class="c" d="M203.5,60.3a23,23,0,0,0-6.9-8.9c0-6.1,28.6,21.3,16.3,22C212.4,73.5,203.2,62.1,203.5,60.3Z" transform="translate(0 -0.3)"/><path class="ab" d="M135,41.8q-9.7,1.1.8-1.3c-1.8-5.7-15.8,2.8-18.8-.4,1.9-5.1,37.6-3,37.5-3.5C154,39.7,137.9,41.1,135,41.8Z" transform="translate(0 -0.3)"/><path class="c" d="M118.2,36c12.2,0-13.3-7.3-14.5-1.5-.4,2,7,1.6,6,4.9-7.6-8.9-7,1.6-9.8-10.4-2.2,3.4,5.4,3.8,6.9,3.4-7.8-5.8,22.1-.5,12.6,0a8,8,0,0,1,6.5,1.6C127.8,35.6,117.9,35.7,118.2,36Z" transform="translate(0 -0.3)"/><path class="g" d="M168.1,46.2c3.6,2.1,9,1.1,13,1.1-2.4-4.8-67.2,4.2-66.8,3S162.5,39.8,168.1,46.2Z" transform="translate(0 -0.3)"/><path class="ac" d="M101,22.2c-6.5,4.8,9.6-13.6,12.9-6.7,2,4.3-8.7,2.3-7.7,3.6a3.2,3.2,0,0,1,3.3.6C105.1,25,106.8,18.9,101,22.2Z" transform="translate(0 -0.3)"/><path class="s" d="M147.7,39c2.8-1,32.3-4.1,34.5.6C174.3,36.5,156.6,38.8,147.7,39Z" transform="translate(0 -0.3)"/><path class="ab" d="M94.9,65c-.1-9,6.5-22.2,18.8-17.4-2.5,8.7-17.1,3.3-17.5,23.7C96.1,76.3,95,64.7,94.9,65Z" transform="translate(0 -0.3)"/><path class="ad" d="M104.9,49.5c7.7-4.6,8.3,1.1,12.1,1.1C117.5,57.1,106.2,51.6,104.9,49.5Z" transform="translate(0 -0.3)"/><path class="c" d="M98.8,42.9l10.3-1.8C106.8,46.6,86.3,45.7,98.8,42.9Z" transform="translate(0 -0.3)"/><path class="p" d="M201.1,53.4c-5.6-3.5-3.2-1.4-5-5C203.1,51.1,204.7,56.4,201.1,53.4Z" transform="translate(0 -0.3)"/><path class="ab" d="M103.2,37.6c12.4.7-7.7,5.1-9.5,3.9Z" transform="translate(0 -0.3)"/><path class="z" d="M158.8,7.5c-14.6-9,23.6,6.7,15.8,9.7-2.1.8-6.9-6.2-7-6.4s6.9,24.4,7.4,26.6c0,.2-50.8-24.5-54.7-31.3C119.9-3.2,140,19,139.8,18.8c-.1-8.3,20,.5,20.6.5,4.4,3.9,4.6,6,7.3,10.7C170.9,29,164,10.3,158.8,7.5Z" transform="translate(0 -0.3)"/><path class="aa" d="M174.8,37.3c-5,0-.6-11.2-1.4-15.9s.3,5,1.4,5,2.4-8,3-9.1c5,9.2-.7,3.8,2.2,7.4q-2.4-5.3.2-4.7C181.7,22.7,180.7,39.1,174.8,37.3Z" transform="translate(0 -0.3)"/><path class="g" d="M132,1.9c3.5,1.7,11.8,6.7,12.3,7s2.2,2.7,1.4,4.3c-5.8,4.2-14-10.3-19.5-10.4C122.8,2.8,131.3,2.2,132,1.9Z" transform="translate(0 -0.3)"/><path class="aa" d="M160.4,19.7c1.8,0-12.3,4.6-7-2.2,4.8,3.9,10.4-3.6,6.7-8.9C159.4,9.2,170.2,22.6,160.4,19.7Z" transform="translate(0 -0.3)"/><path class="c" d="M153.5,17.5c6.4,11.6-9.7-2.9-11.7-6.1.7-.7,2.5,2.3,3.6,1.5s-3.4-4.4-2.9-5.1C144.7,4.9,177.7,53,153.5,17.5Z" transform="translate(0 -0.3)"/><path class="ae" d="M174,20.2a50.5,50.5,0,0,0-.5,17.1c-1.5-2.8-3.4-22.8-1.3-23.2a18.5,18.5,0,0,0,2.4,2.7C175,16.6,177,12.1,174,20.2Z" transform="translate(0 -0.3)"/><path class="p" d="M108.8,52.8c-1.6.5-3.3,57-15.8,57q-.8-.6-1.6.5c-2.1-.4-1-10.7-1.3-12.9,1-.6,1.8,7.8,1.9,8.1C96.6,102,106.4,50.8,108.8,52.8Z" transform="translate(0 -0.3)"/><path class="y" d="M94.4,152C79.5,167.2,69.3,119,70,116c.5.2.7,17.3,4.4,13.2,1.2-1.3.6-9.6,1.9-9.5C68.2,119.5,89.2,163.3,94.4,152Z" transform="translate(0 -0.3)"/><path class="af" d="M76.4,122c0-6.3.1,6.5-1.9,8.1-7.4,5.9-4.8-23.2-.4-19C74.1,112.4,79.4,121.8,76.4,122Z" transform="translate(0 -0.3)"/><path class="c" d="M90.3,101.2c1,2.7.5,22-3.2,22.1s-1.8-28.9-.6-28.9C85.7,94.4,90.3,109.6,90.3,101.2Z" transform="translate(0 -0.3)"/><path class="ag" d="M83.7,110.3c1.6,1,3.2,9,2.8,11s-10-10.8-14.8-9.9Q77.7,104.9,83.7,110.3Z" transform="translate(0 -0.3)"/><path class="z" d="M117.3,4.7c4-3.1,11.8-4.9,16.1-1.4C125.7,1.3,116.8,8.7,117.3,4.7Z" transform="translate(0 -0.3)"/><path class="g" d="M191.1,26c-1.4.4-6.6,4.3-7.9,4.5-1.1-3.6,9.1-7.8,12.4-9.3-.3,2.4-2.2,3,1,2.4C196.9,23.6,187.9,27.1,191.1,26Z" transform="translate(0 -0.3)"/><path class="ah" d="M117.3,4.7c-2.6-1,5.1.2,5.6.6-2.8-3.3-2.6,11.9-.8,11s-11-1.8-12.8-2S127.3-4.2,117.3,4.7Z" transform="translate(0 -0.3)"/><path class="y" d="M89.9,95.9c0,.3-1.8-31.5,5-30.9,4.5,2.2,10.7,41.9-2.8,41.9C90.7,106.9,90.3,98.5,89.9,95.9Z" transform="translate(0 -0.3)"/><path class="r" d="M207.2,264c-5.2,1.9,4-14.4.3-14.7-1-.1-.5,3.3-1.5,3.5-4.2.9-8.3-38.6-9-39C210.7,221.8,211,250.7,207.2,264Z" transform="translate(0 -0.3)"/><path class="a" d="M207.7,261.5c-.6-5.9,2.7-12.6,2.2-18.7C211.1,246.4,209.6,258,207.7,261.5Z" transform="translate(0 -0.3)"/><path class="g" d="M221.8,60.5c.7-1.7-11-10.6-14.3-12.1C220.6,48.2,216.2,50.5,221.8,60.5Z" transform="translate(0 -0.3)"/><path class="g" d="M207.4,48.4c-1.1.1-13.5-2.7-13.3-3s13.4,1.9,12.8-1.1c-.1-.7-2.5.2-2.4-.9s5.8-1,6.5-.6a3.6,3.6,0,0,0-3.4.5C207.3,37.2,209.4,54.4,207.4,48.4Z" transform="translate(0 -0.3)"/><path class="c" d="M144.1,277.8c1.3.6-37-15.1-44.8-29.6C95.5,253,138.9,274.8,144.1,277.8Z" transform="translate(0 -0.3)"/><path class="c" d="M116.2,265.9c-.2-.8,5.9,10.1,4.7,9.1C107.6,272.5,117.5,269,116.2,265.9Z" transform="translate(0 -0.3)"/><path class="t" d="M88,269.8c-.3.1,20.1,27.3,18.6,34C100.4,293.3,92.1,281.3,88,269.8Z" transform="translate(0 -0.3)"/><path class="ai" d="M120.9,275c3.5-.3-12.4-17.4,6.4-1.2C119.2,271.3,126.4,287.2,120.9,275Z" transform="translate(0 -0.3)"/><path class="aj" d="M100.2,248.3c-.1.2-6.6-30.9,4.1-30.3C107,221.8,100.9,246.4,100.2,248.3Z" transform="translate(0 -0.3)"/><path class="c" d="M103.8,226c-.3-3.7,1.2-6.6-.5-10-11.6,11.3-4.3,18.6-6.7,27.8-5.3-6.5,4.4-35.1,8.3-36C108.3,209.2,103.7,226,103.8,226Z" transform="translate(0 -0.3)"/><path class="y" d="M96,160.9c-1.4-4.2-1.9-10.9-.6-14.6.1-.1,5.4-7.6,5.7-7.8,3.7-2.4,17.5-.4,18.5,1.9,2.8,6.1-13.1,15.7-4.7,22.2,1.1.9,4.3-.2,5.8.4,3.1,1.2,5.3,3,8.1,4.6s10.2,3.5,12.4,6.7a4.3,4.3,0,0,0-2.7,1.7c2.5,6.3,18.5,3,22.2.1.2-.2-.6-2.4.5-3.4s7.6-3,10.8-4.3,13.5-4.1,14.8-9.6c3.4-14.4-16.5-6.4-17.7-12.7-.1-.3,4.7-10.1,4.8-10.2,2.3-1,8.6,2.2,11,2.5,7.1.8,6.5-1.2,8.6,7.3s3.1,17.7-.3,25.8c-4.4,10.5-14.4,19.2-16.3,3.2-12.4,3-25.3,13.9-39.3,9.1-4.6-1.6-8.5-15.2-14.5-13s-1.6,18.6-4.7,22c-7.4,8.3-17.6-11.5-14.3-12.4,1.3-.4,3.1,4.1,3.1,4.6q.7-3.1,3.5-1.9c0-.2-.3-4,1.5-2.2-3.2-4.2-4.9-12.2-6.8-16.7s-1.9-8.1-4.8-9.6-1.8,2.4-4.6.1A6.4,6.4,0,0,1,96,160.9Z" transform="translate(0 -0.3)"/><path class="af" d="M96,160.9c-.6-25.6,18.6,20.5,16.7,21.4s-7.3,6.2-8.8-1.1c.2.9,14.6,48.3,2.9,33.4C99.9,205.9,96.9,167.9,96,160.9Z" transform="translate(0 -0.3)"/><path class="c" d="M95,146.9l.2,8.4c-2.5-5.3,0-3.4-7.3-3.5-.3-2.6,6.4-.5,5.7-4-.2-1.2-11.5,1.7-9.7-1.7,1.4-1.3,11.9-16.1,8.1-15.5C92.9,130.4,96.4,144,95,146.9Z" transform="translate(0 -0.3)"/><path class="ak" d="M197.5,221.3c3.2,7.8-.6,66.8-19.6,56.7-.4-1.2,17.3-35.4,18.8-44.5C197.2,230.3,192.8,211.4,197.5,221.3Z" transform="translate(0 -0.3)"/><path class="v" d="M200.4,244.5c4.2-13.5,3.1,9.3,4.5,9.4C202.9,253.8,205.6,244.1,200.4,244.5Z" transform="translate(0 -0.3)"/><path class="o" d="M188.3,298.2c-2.2,0-6.8-.9-4.9-4.6.9-1.9,2.1,2.6,1.9,2.4a5.2,5.2,0,0,1,.8-4.1C187.9,291.9,186.8,296.5,188.3,298.2Z" transform="translate(0 -0.3)"/><path class="r" d="M145.6,279.9c2.8,5.7,10.4,26.7,3.6,25.4S133.1,275.6,145.6,279.9Z" transform="translate(0 -0.3)"/><path class="al" d="M126.2,279.4c-.2-1.7,10.6-.5,11.9.2-2.6.6-12.2.4-13.1,4.7C123.3,292.2,125.5,278.4,126.2,279.4Z" transform="translate(0 -0.3)"/><path class="m" d="M182,273.3c-5.2,6.4-10.4,12.4-14.9,19.3,2.1-1.7,2.3-16.3-9.9-10.5-1.8-17.1-20.9-19.7-14.6-5.6,4.8,4.2-23.4-9.1-21.5-11.5-3.5,4.3,27.6-5.2,24.4-3.9,4.2-1.7,1.9-12.4,9.6-15.5,3.4-1.4,5.1,9.2,18.6,3.6,5-2.1-6.3,19.7-3.3,22.3s6.2-8.2,9.6-5.1C177.8,275,178.5,271.1,182,273.3Z" transform="translate(0 -0.3)"/><path class="p" d="M166.2,279.1c2.3,5.5-.9,17.3-3.9,21.3-.5-2.6-16.9-24.6,1.1-23.8.5,1.7-16.4,16.7-4.5,17.6C164.6,294.7,163.3,278.4,166.2,279.1Z" transform="translate(0 -0.3)"/><path class="c" d="M174.8,37.3c12.9-6.4-2.2-.2,6.1,1.1-5.9,0-40.6-.5-46.3-8.8a3.9,3.9,0,0,1,4.6-1c4.7,1.8-11.2-4-8.7-5.9C136.9,20.8,174.5,39.2,174.8,37.3Z" transform="translate(0 -0.3)"/><path class="am" d="M187.8,39.6c-12.9,1.6,13.3-10.9,14.3-9.6,2.8,3.6-13.8,6.8-11.3,5.9-1.5-.2,7.1-1,7.2-.9C199.4,37.8,179.6,41.4,187.8,39.6Z" transform="translate(0 -0.3)"/><path class="ag" d="M177.3,73.3c4.6.1,11.3,6.1,12.4-1.9,1.5,1,.7,5.6,2.1,7.4s5.6,1.4,7.2,3.6c3.1,4.3-1.1,19.9-8.2,12.2-2.4-2.6,1.1-8.7-1-11.4s-4.6.4-6.7-1.2C183.4,82.3,179.2,71.3,177.3,73.3Z" transform="translate(0 -0.3)"/><path class="ag" d="M177.3,48.4c5-.8,12,10.8,9.4,14.7C181.3,71.2,176.3,46.7,177.3,48.4Z" transform="translate(0 -0.3)"/><path class="g" d="M179.5,62.2c7.7-1.3-16.9,5.2-15.4,11.7.9,3.6,17.7-5.3,19.7,3.1-3.4-.6-23.5,1.1-23.1,1.5C155.8,72.9,175.8,58.2,179.5,62.2Z" transform="translate(0 -0.3)"/><path class="an" d="M203.5,60.3c-.2-.3-4,19.5-3.5,19.4s-4.3-17.4-8.9-13.3C190.8,72.1,202.8,61.3,203.5,60.3Z" transform="translate(0 -0.3)"/><path class="o" d="M168.2,74.4c-11.4,6.5,2.4-8.1,1.9-7.5Q165.2,70.7,168.2,74.4Z" transform="translate(0 -0.3)"/><path class="p" d="M191.1,66.4c.1,3,2.7,9.9,0,11.6C188.6,77.5,189.4,65.2,191.1,66.4Z" transform="translate(0 -0.3)"/><path class="am" d="M118.2,36c6.5-1.2,7.9-2,13.6-.5A4.8,4.8,0,0,1,127,33c.5-1.4,19.6,2.7,19.6,3.7s-37.6,3.1-37.3.2C109.3,36.2,120.8,35.4,118.2,36Z" transform="translate(0 -0.3)"/><path class="g" d="M106.3,19.1c1.3,0,21.5,1.7,28.5,10.5.4-.2,1,3,1.4,1-.7,3.4-16.2.4-16.4-3.3a6,6,0,0,0,5.1.8C126.8,24.5,108.1,18.5,106.3,19.1Z" transform="translate(0 -0.3)"/><path class="ab" d="M127,32.1c0-1.3,23,.5,23.4,3.4S128.5,32.5,127,32.1Z" transform="translate(0 -0.3)"/><path class="ab" d="M101,22.2c.1-3.7,11.3,2.7,11.5,2.8-9.1.7.5-.5-1.6,2.4C110.3,28.4,101.2,22.4,101,22.2Z" transform="translate(0 -0.3)"/><path class="g" d="M127,33c14.6,11.9-10-5.3-9.7-.5C117.2,30.5,127.7,33.4,127,33Z" transform="translate(0 -0.3)"/><path class="ao" d="M117.1,40.1c1.9,0,9.9-.6,11.1,1.4C115.3,46.4,111.9,45.9,117.1,40.1Z" transform="translate(0 -0.3)"/><path class="ap" d="M219.5,67.2c.5,14,3.3,27.5,2.3,41.8-2.2-.1-.7-16.9-1.3-20.4-2.8,2.2-9.3,9.7-10.6,2.2-1.6-5.1,2.6,13.6-.9,13.2-1.7-2.4-1.1-25.7,3.4-25.9a7,7,0,0,1,2.4,5.2c-.2-1.7-3.3-25.3-3.5-25.1C211.9,52.7,219.7,63.5,219.5,67.2Z" transform="translate(0 -0.3)"/><path class="aa" d="M218.4,59.5c-.1,0-9.9-9-8.7-9.9C214.8,45.5,220.6,61.5,218.4,59.5Z" transform="translate(0 -0.3)"/><path class="g" d="M211.3,58.1c4.7,10.5-7.4-1.8-10.2-4.7C204.4,54.5,208.6,53.9,211.3,58.1Z" transform="translate(0 -0.3)"/><path class="c" d="M213.8,70.5c3.4,1.5,2.3,14.2,1,14.3-8.2.7,3.1-13.2-4.6-1.6,2.1,1.3-2.9-14.3-2-14.7C207.1,69,217.4,71.2,213.8,70.5Z" transform="translate(0 -0.3)"/><path class="aq" d="M200.2,66.7c4.7-10,7.4.9,7,4.3a4.2,4.2,0,0,1-3.9,2.6C200.4,74.8,199.3,67.8,200.2,66.7Z" transform="translate(0 -0.3)"/><path class="g" d="M206.6,68.3c-5.3-11,5.2-.1,5.5,2.5S207.2,69.2,206.6,68.3Z" transform="translate(0 -0.3)"/><path class="g" d="M144.1,36.3c9.9-.1,1-1.3,5.3-3.6,1,.1,8.5,2.2,9.4,3.1C153.4,34.9,147.3,38.5,144.1,36.3Z" transform="translate(0 -0.3)"/><path class="w" d="M94.7,145.4A59.2,59.2,0,0,0,92,130.9c0,4.5,1.8,11.6-2.4,14.3s-5.6.9-6.3-2.1,4.3-10.3,5.5-13.8c2-5.9,1.2-12.4,3.3-18.4,2.8-8,11-16.3,12.5-24.7,1.2-6.2-3-12.4-.6-19.3,1.2-3.5,4.8-11.6,7.4-13.9,7.9-6.9,27-6.1,36.9-5.8,12.4.5,7.7,5.5,3.2,12.8-2.6,4.2.8,6.5-5,4.7-1.5-.5-1-4.7-3.8-5s-2.1,2.5-3.9,3.1c-7.8,2.7-14.1,1.8-21.1,9.4,8-2.2,24.4-6.2,28,1.4,2.2,4.5,1.4,15.8-5.6,9.9,0,.4-5.5,4.7-5.6,4.7-4.7,2.3-8.4,2.3-13.8,2.9s-12.4,1.2-15.7,4.5c-1,1.1-6,18.9-4.7,20.1,4.1,3.9,3.8-3,3.7,4,1.6.4,3.4-1.6,4.8-1.1s-.3,1.7-.4,2.7,19-4.5,20.9-5,6.2-2.6,8-.8.9,11.6,0,12.8-12.2,5.4-15.3,7-7.1,3.8-11.6,3.7-7.2-2.7-10.4-.2C100.7,138.6,96.4,149.7,94.7,145.4Z" transform="translate(0 -0.3)"/><path class="w" d="M153.3,56.7c1.2-2.6,5.6-2.4,3.8-7.1-.5-1.3-7.3-2.3-8.6-2.3,8-2.6,14-.3,22.2.7,2.4.3,9.5-.6,11.1,1.5s-1.4,7.8-5,7.9a7.7,7.7,0,0,1,4.3,3.7c-.4,2.2-12.8,4.8-15.1,7.2s-5.4,7-5,10.1c4.2-2.5,12.2-5.2,16.6-3.5,6.1,2.4,2.7,2.4,4,6.6,2.7,1.3,13.2-.6,8.7,7.1-1.6,2.7-15.8,2.3-19.4,1.8-7.2-1-13.9-3-21.4-3.1-2.8,0-5.4.1-8.2.2.5,0-8.4-.1-7.2.5.5-3.1,1.5-2.2,3.1-3.6s.4.6,2.7-2.7c1.2.5,3,5.2,5,3.6s.9-9.2.2-11.2-.3-4.1-6.3-4.2c-.2-1.1,7.6-3.2,7.6-3.2-4.4.4-15.6,2.2-18.4-2.3,2-1.4,3.1,1.2,5.4,0s8-5.5,9.8-5.1,3,5.1,5.8,5.7,1.1-3.9,2-5.3c1.3.7.6,7.4.5,8.2,1-1.7,7.8-9.3,5.9-11.6S154.4,57.9,153.3,56.7Z" transform="translate(0 -0.3)"/><path class="s" d="M132.5,28.8c-7.4,3.9-15.1-13.6-21.3-14.4C114.8,11.7,132.9,25.4,132.5,28.8Z" transform="translate(0 -0.3)"/><path class="a" d="M108.8,52.8c-7.7,3.4-5.8,24.8-12.1,21.7C83,67.9,114.6,43.4,108.8,52.8Z" transform="translate(0 -0.3)"/><path class="s" d="M101.6,89.3c.9-4-6.4-14-6.4-19.9.1-.2.4,8.2.4,8.4C97,71.4,105.1,86.7,101.6,89.3Z" transform="translate(0 -0.3)"/><path class="m" d="M144.1,28.5c-3.4-1-32.7-12.2-24.3-22.1,5.7-3.4,16.6,9.8,9.5,6.5,2.2,4.3,9,5.9,2.6,8.4C131.7,21.1,154.6,30.5,144.1,28.5Z" transform="translate(0 -0.3)"/><path class="ar" d="M160.4,19.7c2.4-.4,6.3-5.9.6-11,5.7,1.6,10.6,18.6,6.9,23C164.5,28.9,164.5,23.1,160.4,19.7Z" transform="translate(0 -0.3)"/><path class="ac" d="M122.9,5.3c-15.2-4,22.8,1.1,14.6,6.9C136.3,13.1,126.1,4.9,122.9,5.3Z" transform="translate(0 -0.3)"/><path class="c" d="M146,27.2c14,5.1-16-4.5-15.8-5.9s23.1,4,25.5,7C154.8,30.8,147.4,27.7,146,27.2Z" transform="translate(0 -0.3)"/><path class="am" d="M151.8,26.9c-4.2-1.4-15.5-6.4-20.1-6.2-.1.1,3.8-2.9,1.1-5.5C137.2,16.7,151.9,27,151.8,26.9Z" transform="translate(0 -0.3)"/><path class="g" d="M148,15.8c7.2,4.2,7.7,9,11.6,3.9C157,30.4,140.7,18.4,148,15.8Z" transform="translate(0 -0.3)"/><path class="as" d="M148,15.8c-.1-4-9.4,1.3-8.5.7A12.6,12.6,0,0,1,133,9.2C137,9.5,143.7,13.2,148,15.8Z" transform="translate(0 -0.3)"/><path class="c" d="M138.1,15.8c1.1.6,1.3-1.4,1.4-1.3C142.2,20.5,138,20.4,138.1,15.8Z" transform="translate(0 -0.3)"/><path class="ae" d="M93,109.7c-.6.6-6.6,37.6-9.8,35.4-3.6-6,7.9-13.5,2.9-18.2s-3.1,13.3-4.2,13.8c-3.5,1.7,1.3-27.6,5.2-17.9,0-7.8,2.3-6.2,3.4-18.3C92.1,109.7,93,108.3,93,109.7Z" transform="translate(0 -0.3)"/><path class="aq" d="M96,74.4c.2-11.4-1,4.1,5.1-2.2C101.2,84.3,96.1,81.4,96,74.4Z" transform="translate(0 -0.3)"/><path class="ar" d="M75.9,111.7q4.7,4.7,9.7,9.1c-3.8,4.8-4.3-4.1-6.2-4.1-5.8.2,2,25,.9,25.6C76.2,144.4,77,112.3,75.9,111.7Z" transform="translate(0 -0.3)"/><path class="an" d="M83.4,145.2c-1.5,1.6,8.1,2,5.3,3-5.1,2-.9.9,0,3C84.9,153.8,80.4,147.9,83.4,145.2Z" transform="translate(0 -0.3)"/><path class="a" d="M80.6,141.9c-.6-1.4-8.6-26.4-1.4-26.1C94.8,116.3,74.1,140.1,80.6,141.9Z" transform="translate(0 -0.3)"/><path class="ar" d="M120.9,11.1c5.6,9.4,8.6,13.6,20.1,17.7-9.4,1.2-19.4-6-24.3-14.1C122.1,8.4,121.1,26.3,120.9,11.1Z" transform="translate(0 -0.3)"/><path class="c" d="M221.5,147.6c-13.6,23.1-27.7,40.4-24,73.8q-3-8.7-1.1,4.2c-12.2-.4,14.5-86,13.3-87.6.2.6-3.9,14.1.8,15.6,26.1,8.3,11.3-47.5,11.4-54.6C225.3,125.3,233.7,113.7,221.5,147.6Z" transform="translate(0 -0.3)"/><path class="y" d="M133.6,267.5c-4.3-1.4-5.8-.6-12.1-2.4a3.5,3.5,0,0,0,1.4,2.4c1-2.5-30.6-17-20.9-35.1C101.5,232.7,137.5,264.9,133.6,267.5Z" transform="translate(0 -0.3)"/><path class="w" d="M103.8,226c5.6-22.5,9.7,1.4,8.7,1.6S101.3,239.3,103.8,226Z" transform="translate(0 -0.3)"/><path class="y" d="M94.4,235.2q-2.9-18,8.1-16.6C104.9,220.5,99.1,240.7,94.4,235.2Z" transform="translate(0 -0.3)"/><path class="at" d="M103.2,229.2c.4,8.1,13.6,11.3,15.8,20.1C115.7,252.4,100.5,234.6,103.2,229.2Z" transform="translate(0 -0.3)"/><path class="aa" d="M101.6,226.1c.9-5.9-3.2-6.6,1.7-10.9C103.1,215.4,104.9,224.2,101.6,226.1Z" transform="translate(0 -0.3)"/><path class="ag" d="M112.9,217.8c-4.7-1.7-9.3,3.4-8.1-3.7,7.3,1.5,32.8,10.6,32.8,10.5C138.1,260.2,114.4,218.6,112.9,217.8Z" transform="translate(0 -0.3)"/><path class="ag" d="M177.8,173.9c-2.7,6.8,4.1,13.3,9.4,7.2,1.3,1.5-6.8,15.6-7.7,17s-2.9,5.8-4.5,6.7-2.9-1.1-4.4-.8c-5.3,1.2-25.7,10.1-17.6-1.1,4.7-6.5,20.7-2.4,17.4-11.7-.9-2.6-4.8,2.1-2.8-3.9C167.8,186.7,180,174.9,177.8,173.9Z" transform="translate(0 -0.3)"/><path class="y" d="M193.9,151.2c-.8-1.5-.9-4-1.4-5.6s-2.5-4.8-2.7-5.7,1.8-.8,1.3-1.7-3.5.3-3.3.3c-.3-1.8,4.9-2.6,5.9-3.8,2.8-3.4,2.2-3.4,2.4-8s-2.5-6.1-3.3-8.7-5.3-2.6.2-5.1,12.9,5,9.5,5.8c.9-.2-5.3-3.6-6-3.7,4.8.2,6.3,11.2,10.8,2.6.3-.7-.9-15.7,1.7-14.1.4,5,.8,10.1,1.1,15.1.7,10.8-.4,10-6.2,17.3.1-.1-3.4,6.2-3.2,5.7s-.6,4.4-.6,4.4S194.3,150.3,193.9,151.2Z" transform="translate(0 -0.3)"/><path class="p" d="M158.5,199.1c2.2-2.9-14.3,10.3-5,9.6-.2,7.6-20.9,1.8-23,1.6,3,1.8,10.2.7,12.3,4.2-1.4,12.6-34.3-22.3-35.5-24.9,3.1,2.1,10.8,10.9,14.3,11.1a10,10,0,0,1-.7-8.9c2.1-.6,5,12.5,5.6,14.7C129.7,203.4,158.1,202.8,158.5,199.1Z" transform="translate(0 -0.3)"/><path class="s" d="M174.5,136.3c.8,0-5.1,9-5,9.5.9,6.4,9.4-.2,13.2,3.3-1.2,1.2-4-1.1-5.6-.3,6.1-3.1,11.9,9,8.9,13.5-1.7,2.5-9.1,5.1-11.6,5.6-.7-1.7,7-4.7,8-5.3-6.3-4.5-30.5,3.5-34-2.2.4-3.7,24.1,2.3,27.3-3s-3.6-7.7-8.1-6.8c.5-.1-12.5,5.3-10.3,2.5s9.1-4.9,11.3-9c0,0,2-7.5,1.8-7.4S176.6,132.6,174.5,136.3Z" transform="translate(0 -0.3)"/><path class="ae" d="M122.3,164c-5.2-2.5-9.8,1.5-9.9-6.6,0-2.6,2.2-8.3,3.7-10.5s14.9-18.6,19.1-16.2c-1.1-.6-4.5,6.9-2.7,9.7-.1-.2,16.4,6,12.3,9-.1,0-10.1-3.6-9.5-3.3-3.3-1.7-7.3-5.3-6.2-9.6-4,2-3.3,6.8-5.6,9.8s-5.2,3.7-6.9,6.3-3.4,5.5-2,7.5c-.1-.2,11-.5,8.6,1a5.9,5.9,0,0,1-3.6.2C119.9,162,122.7,162.8,122.3,164Z" transform="translate(0 -0.3)"/><path class="c" d="M185.3,185.1c1-6.2,7.1-11.4,8.7-17.6.5-1.8.5-16.9.7-17,3.6-.5.8,10.2,2.5,10.7,4.5,1.3.4-13.6,3.5-13.8,4.8-.2-2.6,21.1-3.8,23.8s-9.4,21.7-12.9,21.4S185.3,185.2,185.3,185.1Z" transform="translate(0 -0.3)"/><path class="ar" d="M177.8,173.9c-3.3,2.7-3.2,8.9-6.4,12.1s-6.9,2.7-9.7,5c-.6-.4,5.7.4,5.7.5s-32.7,2.5-31.6-.9c0,0,25-3.6,26.1-3.9,5.5-1.4,8.2-2.9,11.7-7.1C173.4,179.9,176.9,170.5,177.8,173.9Z" transform="translate(0 -0.3)"/><path class="au" d="M173.1,161.2c4.1,0,7.4-.2,11.3,1.3-2,.7-37,19.2-36.7,9.7l14.3-2.2c1.7-.4,2.8.6,4.8-.3C172,167.1,169.7,164.5,173.1,161.2Z" transform="translate(0 -0.3)"/><path class="s" d="M148,188.8c2.2,4.7-13.4-1.3-11.3,2.4-2.7,2.4-3.8-8.4-2.4-9C135.9,186.2,148.4,183.4,148,188.8Z" transform="translate(0 -0.3)"/><path class="g" d="M135.3,131.5c-1.8-1.8-6.4,2.9-7.8,3.9a1.9,1.9,0,0,1,.5-2.1c-4.5,1.4-9.9,7.6-15.3,5.9,2-2.3,8.7-4.2,11.6-5.8s11.6-4.1,12.6-5.4c3.5-4.7,2.1-12.6-4.3-12.3-.1-.5,2.6-3.1,3.1-2.5s1.3,1.1,2.9,4.4S140.8,138.1,135.3,131.5Z" transform="translate(0 -0.3)"/><path class="o" d="M200.2,151.5c0,1.2.4,12.9-3.8,10.7-.9-.5-.4-19.1-2-6.9-3.4-9.5,4.1-2.7,5-9.1C201,146.5,200.2,151.6,200.2,151.5Z" transform="translate(0 -0.3)"/><path class="aq" d="M138,176c-1-2.2,20.1-3.4,19,2.4C154.1,180.1,139.3,180.4,138,176Z" transform="translate(0 -0.3)"/><path class="ae" d="M143.3,184.4l-4.7-.4c3.8-2.2,11.2-.4,15.3-1.1,7-1.1,14.4-4.4,20.7-7.7,1.3.6-10.8,7.6-11.4,7.9C159.6,184.6,146.4,187.8,143.3,184.4Z" transform="translate(0 -0.3)"/><path class="s" d="M120.9,192.1a62.4,62.4,0,0,0,1.6,9.8c-1.6,1.3-9.7-7.1-10.2-8.4C113.3,194,120.3,189.6,120.9,192.1Z" transform="translate(0 -0.3)"/><path class="l" d="M116,139c1.6-.7,12.1-7.6,13-6.3s-10.4,12.3-11.9,13c-.2-1,3.9-5.6,1.9-7.1Z" transform="translate(0 -0.3)"/><path class="q" d="M122.3,164c-2.8-5.3-4.3.1-.5-2.8,1.2-1,10.3-4,10-1.2s-5.5-.6-2.4,5.7c.6,1.3,7.9,4.7,7.3,5.7S123.6,164.6,122.3,164Z" transform="translate(0 -0.3)"/><path class="av" d="M134.7,171.1l1.8.2c-4.5-3.4,14.5-1.4,15.4.8a10.1,10.1,0,0,0-3.7-.1c3.6-.3,5.4,2.4,7,2.6C154.4,177.2,136.7,172.5,134.7,171.1Z" transform="translate(0 -0.3)"/><path class="an" d="M120.4,174.1c.1-4.4,6.6-5.2,8.5-2.3s.2,2.6-.7,3.6c.8-.9-7.9,3.1-7.5,2.9Q118.4,177.4,120.4,174.1Z" transform="translate(0 -0.3)"/><path class="g" d="M174.5,136.3c-.3-2.8,8.3,1.4,11.5,1,5.4-.8,8.3-4.1,9.3-8.8.1-.3-1.7-8,.2-8.1-.8,7,3.5,10.1-3.1,15.5S181.7,137.7,174.5,136.3Z" transform="translate(0 -0.3)"/><path class="o" d="M114.3,138.5q-2,.8,0,.8c-4.2,1.5-8-2.5-12.2-.2s-3.1,5.5-7.2,7.7c.3.8,6.2-9.9,6.7-10.1S112.2,138.2,114.3,138.5Z" transform="translate(0 -0.3)"/><path class="ag" d="M153.8,175.2c1.2-1.4,6.8-2.3,8.5-2.1-3.1,1.1.9,4.5-3.6,5.1S156.6,175.1,153.8,175.2Z" transform="translate(0 -0.3)"/><path class="aw" d="M187.2,158.9c2.4-2.4-7.4-10.8-11.5-9.7C182.7,144.8,187.2,153.2,187.2,158.9Z" transform="translate(0 -0.3)"/><path class="ae" d="M138,172.2c1.1-.2,8.2-.2,8.4,1a1.7,1.7,0,0,1-1.1,1.4,33.9,33.9,0,0,0,7.7.8A19.9,19.9,0,0,1,138,172.2Z" transform="translate(0 -0.3)"/><path class="aa" d="M157.1,178.3l3-.8c-1.6,8.1-22-2-22.6-1.4S155.3,178.6,157.1,178.3Z" transform="translate(0 -0.3)"/><path class="p" d="M120.4,174.1c0,2.1-1.2,18-1.9,17.5C119,193,118.2,175.2,120.4,174.1Z" transform="translate(0 -0.3)"/><path class="g" d="M129.3,175v-1.7c1.7,2.9,4.1,5.5,5,8.9.1,1.8.6,3.6.5,5.6-.9-.7-.6-1.6-1-2.3s-.9-.8-.9-1.4c-.1-2.7-1.5-4.9-3-7.1C129.4,176.4,128.9,175.8,129.3,175Z" transform="translate(0 -0.3)"/><path class="ax" d="M109.6,175.2a28.3,28.3,0,0,1-3.2-11.8C106.7,163.3,111,174.9,109.6,175.2Z" transform="translate(0 -0.3)"/><path class="ay" d="M188.6,166.4c.1-.6,2.3-7,3-7S188,167,188.6,166.4Z" transform="translate(0 -0.3)"/><path class="m" d="M114.3,200.9c1.4,6.3,27.3,13.6,23.5,22.9,1-2.4-10.7,5.2-8.8,5.1-3.5.2-9.3-12.9-17.7-13.1A32.2,32.2,0,0,0,114.3,200.9Z" transform="translate(0 -0.3)"/><path class="w" d="M88.6,151.2c-10.3-1.6,4.8-5.4,5.1-5.1C96.9,150,90.5,151.2,88.6,151.2Z" transform="translate(0 -0.3)"/><path class="y" d="M196.1,224.7c2,6.9-8.4,60.6-17.9,50.9-.9-.9.2-.8-1.1-1.9S190.2,202.9,196.1,224.7Z" transform="translate(0 -0.3)"/><path class="m" d="M175.6,252.9c1.5,3.6-26.8-4.5-27.2-4.4s-2.8-6-2.7-6.7c2.7-8.4,15,7,16.2,5.4s2-27.7,9.3-28.8c-2.8,0-17,5.5-18.7-.9C149.6,206.4,218.1,216.5,175.6,252.9Z" transform="translate(0 -0.3)"/><path class="at" d="M175.6,252.9c-.1.8,0-10.1,3.9-5.1,2.7,8.2-3.5,15.8-3.4,20.9C176.3,282.9,175.5,252.2,175.6,252.9Z" transform="translate(0 -0.3)"/><path class="ag" d="M146.1,241.6c.1,4.2,6.5,9.6.9,13.5C132.8,246.9,131.1,221.6,146.1,241.6Z" transform="translate(0 -0.3)"/><path class="o" d="M140,247.6c-1,6.7,9.6,31.1-12.4,10.2-5.1-4.9-18.8-29.4-8.8-36-2.6,1.7-1.1,18.9,10.4,15.5-4.3-5.1-4.2,35,7.3,29.5C150.5,260.2,143.2,251.8,140,247.6Z" transform="translate(0 -0.3)"/><path class="aa" d="M173.1,272.2c3-6.9,6.3-7.6,6.4-16C178.9,257.1,183.8,274.4,173.1,272.2Z" transform="translate(0 -0.3)"/><path class="az" d="M166.2,279.1c-1.8,1.1-3.8,4.5-8.2,3.6C158,280.7,166.1,272.8,166.2,279.1Z" transform="translate(0 -0.3)"/><path class="w" d="M158,282.7c13.6-9.2,3.9,13.3.2,12.2Q154.4,289.5,158,282.7Z" transform="translate(0 -0.3)"/><path class="ax" d="M149.4,32.7c-.9,3.4-18.4,2-18.8-1.6C134.5,29.6,144.7,30.8,149.4,32.7Z" transform="translate(0 -0.3)"/><path class="ab" d="M146,27.2c2.7.8,6.3.9,5,3.3C147.1,38,144.5,25.2,146,27.2Z" transform="translate(0 -0.3)"/><path class="ar" d="M145.8,31q-7.4,3.2-12.7-.6c.6-2.1,4.3,2.6,1.7-.9C137.9,29.2,142.3,31.3,145.8,31Z" transform="translate(0 -0.3)"/><path class="aq" d="M191.1,78V67.5c7.6-3,12.5,11.6,8.2,15.2C196.8,85.8,191.7,79.9,191.1,78Z" transform="translate(0 -0.3)"/><path class="ab" d="M199.3,82.7c.2-2.2,2-15.8.9-16,1.6,8.3,1.1,14.4.3,22.5-.1,1.1,1.5,16.6-.5,16.8,2.2-.2-15.7-10-14.2-7.5.1-3.7,9.9-3.4,12.3-2.9C197.5,91.2,198.8,87.1,199.3,82.7Z" transform="translate(0 -0.3)"/><path class="s" d="M193.3,95.5c-3.1,1.6-4.5,1-5.9-1.3-2,3-14.9-3-15.3-2.5,6.8-8.5,17.7,6.3,18-8.4C192.9,84.7,189.3,93.1,193.3,95.5Z" transform="translate(0 -0.3)"/><path class="s" d="M190.1,82.6a14.6,14.6,0,0,1-8.5-1.1Q194.3,77.9,190.1,82.6Z" transform="translate(0 -0.3)"/><path class="ba" d="M209.6,118.6c-2-7.3-.5-21.5.2-29.1,1.2,10.5,8.7-2.5,10.4-2.4,3.3.1,3.5,31.5-3.5,29.6-.6-.2-1.4-6.7-.8-5.1S209.6,118.6,209.6,118.6Z" transform="translate(0 -0.3)"/><path class="ag" d="M201.6,80.4c-.3-9.1,4.8-5.2,5-12.1,5.4,4.5,3.9,24.5,2.7,31C195.5,93,219.4,78.9,201.6,80.4Z" transform="translate(0 -0.3)"/><path class="ab" d="M102.6,116.2a4.5,4.5,0,0,1-3.1.6c-.5-1.8,2.6-16.7,3.6-18.5,4.1-7.2,15.5-7.8,23.1-7.9.4.9-17.5,4.9-19.1,5.7,3.7,1,14.1-.5,5.3,4.1-6.2,3.3-5.4-1-8.5,4.5C103.1,106,101.9,116.5,102.6,116.2Z" transform="translate(0 -0.3)"/><path class="g" d="M128.1,64.5c.1,0,9.3,2.9,8.5,1.3,2.3,4.3-27.2,8.5-20.9,7.5Z" transform="translate(0 -0.3)"/><path class="p" d="M123.1,91.4c2.9-2.2,8-.8,11.5-1.6s6.5-2.9,11.2-3.3,24.5,5,25.3,4.3c-2.5,2.1-20.2-2.6-23.9-2.3s-6.8,0-10,2.9-2.2,7-5.6,5.9c-1.6-1.8,1.2-2.7-3.4-4.9C127.2,91.8,123.9,92.6,123.1,91.4Z" transform="translate(0 -0.3)"/><path class="bb" d="M153.3,56.7c9.9-4.2,1.2,13.6-1.9,13.1S153.2,57.9,153.3,56.7Z" transform="translate(0 -0.3)"/><path class="an" d="M102.6,116.2c.8-1.9,7.9-3.5,8.8-1.8s-7.1,7.1-8.1,6a23.1,23.1,0,0,0,2-3.8A4.8,4.8,0,0,0,102.6,116.2Z" transform="translate(0 -0.3)"/><path class="bc" d="M133.6,114.6c1.9.2-18.3,7.9-19.3,5.8S132.6,113.3,133.6,114.6Z" transform="translate(0 -0.3)"/><path class="bd" d="M141.1,87.1c-3.8,1.3-2.8,5.1-8.3,2.8C135.9,84.9,136.6,86.8,141.1,87.1Z" transform="translate(0 -0.3)"/><path class="at" d="M109.2,122.1c-3.5,3,4.1-13,7.1-3.8C117,120.5,110.1,121.7,109.2,122.1Z" transform="translate(0 -0.3)"/><path class="be" d="M128.7,71.1c1.8-.8,17-6.2,19.6-4.7A39.7,39.7,0,0,1,128.7,71.1Z" transform="translate(0 -0.3)"/><path class="ab" d="M116,119.3c1.4-3.3-12.4,1.6-12.5,1.6s15.3-8.5,14.7-3A1.9,1.9,0,0,1,116,119.3Z" transform="translate(0 -0.3)"/><path class="ab" d="M109.2,122.1c-1.5-.4,6.5-2.7,6.7-2.8q-2.9,1.5,0,.9A20.8,20.8,0,0,1,109.2,122.1Z" transform="translate(0 -0.3)"/><path class="ao" d="M156.8,88.2c5.7,1.7,12,1.9,17.6,2.7-2.7,1.3-11,7.7-14.3,5.3-.8-1.8,2.3-2.3.7-4.2S156.6,89,156.8,88.2Z" transform="translate(0 -0.3)"/><path class="aq" d="M141.4,68q-6,4.5-10,.9C136.1,64.5,136.1,65.9,141.4,68Z" transform="translate(0 -0.3)"/><path class="m" d="M80.6,141.9c3-1.5,0-10.1,1.6-13.6C87.2,122.1,86,152.6,80.6,141.9Z" transform="translate(0 -0.3)"/><path class="m" d="M184.2,214.7c-.4-4.8-5.3.5-7.9-1.6,4.5,3.6,24.8-56.9,25.2-60.4a5.1,5.1,0,0,1,3.3-.6c-.9,0-9.6,58.5-9.8,63.2-2.4,0-.2-19.6,0-22.3C194.3,194.9,186.3,214.7,184.2,214.7Z" transform="translate(0 -0.3)"/><path class="y" d="M184.2,214.7c-.3-5.6,7.5-20.1,11.2-24-.1,9,2,21.2.2,29.8l-2.9.3c-.6-.5,1.3-2.5-.1-2.8s-6.3,17-7.6,18.2C182.4,235.8,183.9,215.8,184.2,214.7Z" transform="translate(0 -0.3)"/><path class="y" d="M220.1,147.9c-8.9,17.5-18.4-7.1-5.5-5.7C214.6,142.2,219.8,149,220.1,147.9Z" transform="translate(0 -0.3)"/><path class="m" d="M220.1,147.9c-.9-6.1,13.1-28.5,6.6-34.5C225.7,117.7,233,137.1,220.1,147.9Z" transform="translate(0 -0.3)"/><path class="ar" d="M207.1,155.1c-.3-2.2-7.8-17.1-3.8-18.8,1.4-.6,3.2,9.8,2.6,7,1.6-1.3,2.1-11.8,4-11.5S207.1,155.3,207.1,155.1Z" transform="translate(0 -0.3)"/><path class="bf" d="M230.4,114.1c0-.2-10.8.1-10.4,2.1C218.6,110,228.7,106.2,230.4,114.1Z" transform="translate(0 -0.3)"/><path class="aa" d="M209.4,138.2c-1,3.3,1.6-3.9,3.6-5.1s-.6,9.2,2.9,8.5-.5-4.3,1.4-4.9.8,8.9-.7,9.8C212.3,136,209.6,151.6,209.4,138.2Z" transform="translate(0 -0.3)"/><path class="ar" d="M209.3,138.5q-.6,7-1.1,14.1C207.3,149.6,208,141.4,209.3,138.5Z" transform="translate(0 -0.3)"/><path class="aq" d="M119.3,229.1a38.8,38.8,0,0,1-.6,13.8c-2.6.3-15.8-9-15.4-12.2C110.4,239.8,113.5,218.3,119.3,229.1Z" transform="translate(0 -0.3)"/><path class="bg" d="M112.7,228c-.6,2.8-2.4-10.4.5-10.7S112.5,228.2,112.7,228Z" transform="translate(0 -0.3)"/><path class="s" d="M138.1,233c-.6,2.1-4.8-12.7-12.4-23.2-1.5,0,31,5.1,31.2,5.5-3,4.3-2.8,4.7,6.9,4.7.2,2.8-20.8-1.1-19.5-1.3s4,1.9,3.8,4.6C135.9,227.2,145.8,227.2,138.1,233Z" transform="translate(0 -0.3)"/><path class="az" d="M112.7,228c1.1-6.8,1-5.2,6.3-5.2C121.3,231.1,117.4,226.6,112.7,228Z" transform="translate(0 -0.3)"/><path class="ar" d="M155.7,215.3c-5.9.1,7.1-1.9,5-5.2-.9-1.4-8.9,1.8-8.8-.6,18.1-8.9,27.9-6.7,35.6-22.9C205.2,197.9,158.3,214.7,155.7,215.3Z" transform="translate(0 -0.3)"/><path class="aq" d="M158.3,192.1c.7-.1,13.7-1.2,14-.7,4.5,7.1-13.2,7.9-15.4,8.3C157.5,201.8,159.9,187,158.3,192.1Z" transform="translate(0 -0.3)"/><path class="bh" d="M169.3,191c-1.5.9-8.7,2.4-9.1.1C159.4,185,169.9,189.2,169.3,191Z" transform="translate(0 -0.3)"/><path class="y" d="M209.3,99.2c-1.9,5.1,1.2,20.9-4.7,22.2s-2.4-2.4-5-4.4c-.3-.3-4.8-2.3-4.8-2.2,0-3,8.9,2,7.7,2.5,3.6-1.5-10.4-5.9-11.5-6.6-3-1.8-3.6-5.2-9.6-6.4-2.9-.6-11.9,1.7-13.6.7-9.2-5.6,8.1-8.2,11.4-7.9,7.4.7,17.9,1.5,20.9,8.6,0-7.1-3.1-20.4,1.9-26.5C211.2,67.6,209.4,94.4,209.3,99.2Z" transform="translate(0 -0.3)"/><path class="bi" d="M217.1,136.8c-.2-4.7-.4,13.5-3.3,4.5-1.6-5-6.4-27.1-2.5-27.3,1.3-.1.6,3.3,2,3.3s.7-7.1,2.6-7.1S219.3,135.4,217.1,136.8Z" transform="translate(0 -0.3)"/><path class="bf" d="M192.8,113.2c1,7.1-28.8,4.9-26.5-.3C167.6,110.1,190.2,109.6,192.8,113.2Z" transform="translate(0 -0.3)"/><path class="at" d="M195.5,120.3a11.1,11.1,0,0,0,0,4.9c-2,.1-.3-4.2-2.2-4.3a23.9,23.9,0,0,0-4.5.7c-2.3.4-2.8,3.2-4.7,3.6s-4.5-.7-7.4-1.1c2.2,1.6-10.9,8-12.9,7.1-6.9-3.4,8.7-5,8.8-5.2,1.8-2.8-3.2-6.4-2.4-7.6S195.4,117.1,195.5,120.3Z" transform="translate(0 -0.3)"/><path class="bj" d="M209.9,122.3c1.6,8.5,3.8,10.3-.2,17.6-.1-.6,1.3-8,.3-8.2.6.2-7.1,9.3-6.5,3.5C207.1,130.6,209.9,128.6,209.9,122.3Z" transform="translate(0 -0.3)"/><path class="be" d="M203.3,137.9a24.8,24.8,0,0,1,1.3,7.9c.1,2.2.1,4.5.1,6.7-1,.6-2,0-3,0,0-3.2-1.1-6.3-1.2-9.5.3-.7.4-1.5.6-2.2a1.6,1.6,0,0,1,1.5-1.3C203.5,139.3,203.1,138.5,203.3,137.9Z" transform="translate(0 -0.3)"/><path class="aw" d="M187,118.1c-1.6.3-21.3,1.1-19.1-2.7.7-1.2,22.3,2.8,23.4,2.3Z" transform="translate(0 -0.3)"/><path class="be" d="M203.5,135.2c1.7,4.5,5.5-4.3,6-4.7q1,8.1.4,1.5c-.6,1-2.4,12.8-4,12.5S202.4,135.8,203.5,135.2Z" transform="translate(0 -0.3)"/><path class="g" d="M201.1,142.9a67.5,67.5,0,0,1,.6,9.7c-.2,1,.2,2.1-.4,3,0-2.2,0-4.4,0-6.6,0-.5.1-1.2-.6-1.1s-.4.7-.4,1.1,0,1.6,0,2.5a5,5,0,0,1-.3-2.5,6.1,6.1,0,0,0-.6-2.7v-.6a8.2,8.2,0,0,1-.1-2.3.9.9,0,0,1,.6-1A.9.9,0,0,1,201.1,142.9Z" transform="translate(0 -0.3)"/><path class="ab" d="M192.8,113.2a1.8,1.8,0,0,1-1.7-.6c1.2-1.1,14.3-1,11.3,3.3C202.5,112.8,194.7,113.7,192.8,113.2Z" transform="translate(0 -0.3)"/><path class="g" d="M187,118.1a9,9,0,0,1,9.5,1.3C196,119.9,188.6,118.1,187,118.1Z" transform="translate(0 -0.3)"/><path class="o" d="M201.1,142.9c-1.4-.4-1.6-.2-1.7,1.1s0,1.1,0,1.6c-.3-1.8-.9-3.5,1.1-4.8s1-1.6,2.1-1.3a1.7,1.7,0,0,0-1.1,1.7A6.3,6.3,0,0,1,201.1,142.9Z" transform="translate(0 -0.3)"/><path class="w" d="M158.3,192.1c1.7.4-18.3,17.3-36,2.9-4.5-3.6-5.1-15.1-.6-19.6C118.2,178.9,150.7,191.4,158.3,192.1Z" transform="translate(0 -0.3)"/><path class="g" d="M151.9,209.5c1,1.7,9.9-2.5,9.7.9-.7,9.3-28.9,3.7-32.7-1.2C137.6,212.1,143.9,212.2,151.9,209.5Z" transform="translate(0 -0.3)"/><path class="bk" d="M125.1,202.6a16,16,0,0,0,9.9,1.7C130.7,210,125.8,206.1,125.1,202.6Z" transform="translate(0 -0.3)"/><path class="y" d="M157.4,153.4c4.9,0,12.4-7.2,17.4-3.5s2.2,8.8-.8,10.7-40.9,1.7-41.9-3.5S155.9,151.8,157.4,153.4Z" transform="translate(0 -0.3)"/><path class="c" d="M157.4,153.4c-1.5.3-13.1,2-13.8-.9s18.6-9.6,19.9-10.1c4.3-1.9,2.7.2,4.8-3.5.2-.4-2.7-4.5-1.2-5.2,4-2,3.6,9.2,1.4,11.4s-13.8,2.9-13.8,3.9c.1,2.6,9.4-.5,10.4.6C164.5,148.9,158.3,153.2,157.4,153.4Z" transform="translate(0 -0.3)"/><path class="av" d="M135.2,158.8c10,.9,19.6.9,29.6,1.4,4.5.2,7.6-.6,8.1,3.5-.2-1.7-2.5,4.1-2.6,4.1s-1.8-4.5-2.8-5.1-8.3.6-9.8.5c-8.9-.7-22.2-3.8-29.9-.7-1.6-2.9,1.5-2.5,3.4-2.5a5,5,0,0,0-3.7-.6C127.5,156.1,133.7,159.2,135.2,158.8Z" transform="translate(0 -0.3)"/><path class="e" d="M164.5,149.3c-1.8.5-10.6,3.2-10.9-.2s10.2-2.5,11-2.4A1.8,1.8,0,0,0,164.5,149.3Z" transform="translate(0 -0.3)"/><path class="ae" d="M170.6,137.4c-2,.6-2.5-4.1-3.4-3.5-2.7,1.6-12.5-3.3-4.5-3.6,1.8-.1,12.6,5.2,12.2,5.6S172.5,134.8,170.6,137.4Z" transform="translate(0 -0.3)"/><path class="aq" d="M132.2,143.5c3.2,3.1,10.2,1.2,9.7,6.8s-9.6,6.7-13.7,6.6a36.3,36.3,0,0,1-5.6-1.4c-2,.4-7.6,6.4-8.6,5.7C107.6,156.8,127.3,141.2,132.2,143.5Z" transform="translate(0 -0.3)"/><path class="y" d="M168.5,138.5c4.2.4-3.8,4.9-3.6,4.8-2.2,1.2-6.6.5-9.6,2.2s-2.5,3.7-4.8,4.2c-6.9,1.6-2.2.4-6.5-2.1s-5.3-4.4-9.3-6.1c.2-1.9,20.4-5.5,23-1.5a7,7,0,0,1-3.5,3.1C156.6,141.1,165,135.9,168.5,138.5Z" transform="translate(0 -0.3)"/><path class="w" d="M135.3,131.5c7,1.1,8.4,11.2-1,9.5C128.4,140,129.6,133.6,135.3,131.5Z" transform="translate(0 -0.3)"/><path class="ac" d="M115.4,161.1c3.6-6.7,5.7-3.5,9.5-3.9,1.7-.2,10.7-3.1,7.5-.2-1-.6,3.7.5,3.7,1s-4.1-.3-.9.8C129.6,158.7,120.5,159.3,115.4,161.1Z" transform="translate(0 -0.3)"/><path class="aq" d="M133.1,141.3c2.2-2.1,5.9-.1,7.6-3.2.1-.3-1.6-5.9-1.4-6.6,1.3-6,5.2,7,4.3,6.2,3,2.8,6.7-1.5,9.4-1s-8.5,3.3-8.4,3.3C141.7,140.5,136.1,141.7,133.1,141.3Z" transform="translate(0 -0.3)"/><path class="at" d="M132.2,143.5c-1.8,2-7.4,3.1-9.6,3.8C124,144,128.3,135.7,132.2,143.5Z" transform="translate(0 -0.3)"/><path class="g" d="M133.6,156.2l-6.7.5c4.5-2.5,18.1.2,14.2-9.9a4.2,4.2,0,0,1,3.6,2.8l-1.1-2.8c5.3,5.4.1,2.3,6.1,3.3-3.4,1.8-6.8.9-3.3,3.3C140.9,153.7,139.6,154.8,133.6,156.2Z" transform="translate(0 -0.3)"/><path class="aa" d="M130.6,141.8a5.1,5.1,0,0,0-6.4,1.1c-.3.7,4-9.5,5.3-7.3S129.1,139.5,130.6,141.8Z" transform="translate(0 -0.3)"/><path class="bh" d="M182.3,205.9c2.4-4.7,3.7-18.7,7.2-21.2C189.4,191.1,190.9,204.9,182.3,205.9Z" transform="translate(0 -0.3)"/><path class="t" d="M153.5,184.7c4.1-.6,22.3-9.4,21.9-6.9s-12.9,7.4-15.5,8.4-14.3,5.9-18,2.6C134.9,182.7,151.4,185.3,153.5,184.7Z" transform="translate(0 -0.3)"/><path class="a" d="M151.9,172.2c-2.2-1.3-16.4.3-9.5-8.8,3.6-4.6,7.8-.3,7.8,4.4C149.4,149.4,168.4,177.9,151.9,172.2Z" transform="translate(0 -0.3)"/><path class="a" d="M160.1,171.1c-4.8.3-2.7-8.7.4-8.5C165.4,162.9,163.4,169.7,160.1,171.1Z" transform="translate(0 -0.3)"/><path class="a" d="M166.8,170c-4.9,3.6-4.2-6.4-1.1-7.8S167.4,169.4,166.8,170Z" transform="translate(0 -0.3)"/><path class="k" d="M167.3,162.3c-2.7.2-5.7,6.8-3,8.8a1.5,1.5,0,0,1-1.3-1.7q-.3,2.6-3,1.7c3-.7,4.6-8.7.9-8.5s-4.1,8.8-2,8.6c-6.9,2,1.4-16.2,4.6-7.3A2.7,2.7,0,0,1,167.3,162.3Z" transform="translate(0 -0.3)"/><path class="k" d="M166.8,170c.2-1.4,1.4-6.2.6-7.7,2.1-.1,3.7.1,2.8,2.8-1-.3-3.6-8.9-1.5,3.1.8-.5.2-2.5,1.4-2.6q-.8,1.8.3,1.8C171.9,156.1,175.3,169.7,166.8,170Z" transform="translate(0 -0.3)"/><path class="y" d="M142.4,131.3c-8.2,1.7-.3-18.4-6.8-17.5-.7-2.5.5-4.9-1.5-7.5s-7.8-1.2-10.6-3.6c-.5-2.1,5.3-1.5,5.1-1.5s-3.1-.1-3.3-1.1a2.5,2.5,0,0,1,1.7-1.6,2.2,2.2,0,0,1-2.2-1c1.3-2.4,7.1-.1,9.2-1.4s1.3-4.6,4.8-6.6,21.9-4.3,23.4.1-6.5,12.9-4.8,19.3,12.6,6.9,12.1,12.7-6,3.8-8.3,6.1-1.2,10.3-8.1,5.7c-2.9-1.9-.6-10.5-.4-13.9s2.1-16.9-.3-18.6C143.5,95.1,144.7,130.3,142.4,131.3Z" transform="translate(0 -0.3)"/><path class="ac" d="M136.4,111.9c2.2,4.8-24.6,6.2-27.4,5.2,4.4-2,.2-4.2,7.6-5.2C118.6,111.6,135.4,110.3,136.4,111.9Z" transform="translate(0 -0.3)"/><path class="bk" d="M127.8,162.5c2.1-6.2,7.3,2,4.4,6.4C128.6,168.1,128.4,165.6,127.8,162.5Z" transform="translate(0 -0.3)"/><path class="bk" d="M136.7,169.8a4.1,4.1,0,0,1-4.4-.9S138.6,167.5,136.7,169.8Z" transform="translate(0 -0.3)"/><path class="a" d="M139.1,169.7c-4.6-.5-2-12.1,2.5-8C143.9,163.7,143.1,171.3,139.1,169.7Z" transform="translate(0 -0.3)"/><path class="t" d="M141.6,161.7c-7.1,1.3-.8,6.1-4.9,8.1,1.2-7.6-2.9-8.8-8.8-9.2C130.7,160.1,139,159.8,141.6,161.7Z" transform="translate(0 -0.3)"/><path class="t" d="M139.1,169.7c4.4,0,2.7-4.6,2.5-8-2.6,0,9-.3,7.4,1.1-6.4-4.3-7.1,4-6,8.3A9.1,9.1,0,0,0,139.1,169.7Z" transform="translate(0 -0.3)"/><path class="w" d="M174,135.1c-1.4-1.9-.2-9,2.8-10.5s5.5.9,7.9.1,2.8-3.4,5.7-4,2-2,4.1-.6,2,9.6,1.5,10.9C191.9,140.9,181,136.9,174,135.1Z" transform="translate(0 -0.3)"/><path class="m" d="M184.2,233c1.1,3.1,4.7,25.4-3.6,24-.1-.7-.3-14.6-5-8.3C176.6,243.2,181.4,237.1,184.2,233Z" transform="translate(0 -0.3)"/><path class="m" d="M138.1,233c0-42.2,29.4,24.6,14.6,9.8-.9-.9,1.9-2.7.3-3.4,1.5.7-4.4.7-2.5-.3-.1,0,.1,6.6-1.2,5.9S141.6,233.5,138.1,233Z" transform="translate(0 -0.3)"/><path class="s" d="M158.2,242.4c9.5-6.3-6.1-15.9-8.6-18.8-3.4,2,27.1-1.9,23-5.7C181.9,226.6,149.5,252.7,158.2,242.4Z" transform="translate(0 -0.3)"/><path class="ar" d="M170.1,219.2c-10.3,5.3-20,7.3-28.1-1.5C143.7,216,167.1,220.8,170.1,219.2Z" transform="translate(0 -0.3)"/><path class="aq" d="M126.4,239.1c8.8,2.2,29.1,19.4,9.3,29C142.9,264.6,104.7,246.1,126.4,239.1Z" transform="translate(0 -0.3)"/><path class="c" d="M179.8,97.7c-.6,0-12.9.3-13-.4-2-9.3,19.2-2.5,22.9-.3C188.4,99.4,181.5,97.9,179.8,97.7Z" transform="translate(0 -0.3)"/><path class="y" d="M217.1,136.8c-.7-6.9-4.6-22.2,4.4-26.2-2.4,7.4,8,19.9-1.6,33.1C216,149.2,217.4,137.6,217.1,136.8Z" transform="translate(0 -0.3)"/><path class="bf" d="M124.7,97.7a4.3,4.3,0,0,1,4.1.8c0,.4-2.9,1.2-3.2,1.7s4.7-.4,4.2,1.3c0,.1-15.3,3.7-16.5,4.5s-8.7,11.3-11.7,9.7c-1.4-.7,1.5-14.5,2.3-15.2S123,96.1,124.7,97.7Z" transform="translate(0 -0.3)"/><path class="bl" d="M101.6,115.7c8.9-5.8,26-18.3,34.8-5.2.8,1.2-19.6,2-20.7,2.1C112.9,112.9,103.4,117.5,101.6,115.7Z" transform="translate(0 -0.3)"/><path class="bm" d="M124.7,97.7c-.7.3-10.4,1.6-10.8.8-1.6-3.7,9.6-6,12.3-6s6.8-1.8,7.2,2.9C133.6,97.7,126,97.5,124.7,97.7Z" transform="translate(0 -0.3)"/><path class="bn" d="M126.2,92.5c-1.5.8-19.9,6.6-20.5,3.6S126.6,88.6,126.2,92.5Z" transform="translate(0 -0.3)"/><path class="c" d="M167.9,94.2c-.3,1.3,0,3.3.8,3.3s-4.4,1.9-4.9,3.1-.3,5.1-1.2,7.4c-2.7,6.5-6.4,5.4-5.8-2.1S161.9,95.6,167.9,94.2Z" transform="translate(0 -0.3)"/><path class="g" d="M161.8,95.5c-.9,2.2-3.2,4.5-4.4,7.4A6.7,6.7,0,0,1,161.8,95.5Z" transform="translate(0 -0.3)"/><path class="ae" d="M217.1,144.6a11.6,11.6,0,0,0,5.8-7.8C233.9,143.1,210,146.9,217.1,144.6Z" transform="translate(0 -0.3)"/><path class="av" d="M223.2,138c-1.8-1.8-2.5-20.6-2.5-20.7S231.8,122.6,223.2,138Z" transform="translate(0 -0.3)"/><path class="bo" d="M224.8,130.2c.5-12,3.6-3.5,3.6-14.4C230.5,121.5,227.2,125.6,224.8,130.2Z" transform="translate(0 -0.3)"/><path class="s" d="M162.1,107.6c.9-9.9,5.8-12.7,16.3-10-3.9.2-9.7-1.3-11.6,2-2.9,4.9,2.6,4.1,4.7,4.2.1,2.1-6.5,2.1-6.8,5.1-.7,5.9,7.5.3,9.3,3.2l-7.2.9c-1.3,2,.7,3.1-3.1,2.8-1.5-.1-3.9-.8-4.5-2.6C161,111.6,161.6,110.8,162.1,107.6Z" transform="translate(0 -0.3)"/><path class="bj" d="M191.1,108.8c.8.5.3,1.9,1.1,2.7,2-3.3-29.6-4.4-27.8-1.6-2.3-3.7,12.1-6.3,12.6-6.3C181.4,103.6,188,109.3,191.1,108.8Z" transform="translate(0 -0.3)"/><path class="bp" d="M191.1,108.8c1.3-2.2-31.9-8.9-25.1,2.2.3.5,33.2-.9,32.6,2.3.1-.5-34.1-.5-34.4-3.4C163,99.4,187.7,103.5,191.1,108.8Z" transform="translate(0 -0.3)"/><path class="aa" d="M215.4,124.7a24,24,0,0,1,1.6,11.6Q216.1,130.5,215.4,124.7Z" transform="translate(0 -0.3)"/><path class="ar" d="M163.5,115.9a2.8,2.8,0,0,1-.6-2.1c-.8.4,6.8,2,5.7,1.6,5.4,2.1,9.8,2.3,16.7,3C180.2,119.9,167.4,120.8,163.5,115.9Z" transform="translate(0 -0.3)"/><path class="ag" d="M168.4,119c3.1-.2,6.5,3.1,5.3,6.5-.6,1.8-13.1,3-10.6,4.9a3.9,3.9,0,0,0-3.5.9c-3.5-.9,8-7.2,8.3-7.6S169.3,118.5,168.4,119Z" transform="translate(0 -0.3)"/><path class="aq" d="M175.1,126.3c-.2,2,.2,6.8-1.9,7.9-.6.3-8.3-1.7-7.2-4.4S173.9,130.6,175.1,126.3Z" transform="translate(0 -0.3)"/><path class="d" d="M189.7,121c-1,.5-4.3,4.4-5.2,4.7s-10.5-.3-9.9-2.2C173.3,128.1,191,121.4,189.7,121Z" transform="translate(0 -0.3)"/><path class="az" d="M168.5,138.5c-.2.8-7.6.3-8.2-.5C156.4,132.7,168.3,130.1,168.5,138.5Z" transform="translate(0 -0.3)"/><path class="ar" d="M149.1,162.8c.1-.8,7.1-1.3,8,0-8.4-1.1-3.1,6.9-7.1,7.3Z" transform="translate(0 -0.3)"/><path class="be" d="M170.1,165.5c-.2.4-.2,4.3-1.9,3.7s-.4-6.8,1.2-6.6S170.1,164.9,170.1,165.5Z" transform="translate(0 -0.3)"/><path class="ag" d="M164,133.5c-5.9.7-2.7,10.4-10.2,4.3S159.9,131.6,164,133.5Z" transform="translate(0 -0.3)"/><path class="c" d="M123.3,155.8a25.8,25.8,0,0,0-7.6,4.3C116.6,157.4,125,153.5,123.3,155.8Z" transform="translate(0 -0.3)"/><path class="ax" d="M157.7,140.2A8.4,8.4,0,0,1,163,139s-10.8,5.1-10,5.8C151.7,143.8,157.8,140.1,157.7,140.2Z" transform="translate(0 -0.3)"/><path class="a" d="M151.4,135.7c-.2,2.6-5.9,5.7-8.1,3.8-.6-.5-.5-4-.7-4.6-1.8-5.1,1.1-22.3,2.9-26.9,3.6-9.3,7.2-8.2,7.5.7a103.3,103.3,0,0,1-.3,12C152.3,123.1,152.6,133.9,151.4,135.7Z" transform="translate(0 -0.3)"/><path class="c" d="M152.4,108.6c-.2-10.6-5-6.8-7,1.1s-.3,19.4-2.8,28.5c-1.2-4,1.6-43.5,10.1-37.9C153.6,100.9,153.5,108.1,152.4,108.6Z" transform="translate(0 -0.3)"/><path class="c" d="M152.4,108.6a30.8,30.8,0,0,1,.5-6.4c.3,11.4-1.4,22.6-1,34C151.2,136.4,152.4,111.6,152.4,108.6Z" transform="translate(0 -0.3)"/><path class="aw" d="M107.6,110.1c3.3-4.2,8.9-6.5,14-7.3,1.1-.2,15.3.8,12.3,3.5,1-.9-11.3-2-11.1-2C120.1,104.5,108.5,111,107.6,110.1Z" transform="translate(0 -0.3)"/><path class="ax" d="M127.3,103.6a11,11,0,0,1,6.5,2.3,3.4,3.4,0,0,0-1.6-2.4c1.6.1,4.7,6.6,4.5,7.1-.9,2.2-6.2,1.8-8.9,1.7,1.1-.3,7.9-.1,8.3-1.4C137.4,107.3,125.8,107.4,127.3,103.6Z" transform="translate(0 -0.3)"/><path class="a" d="M132.6,160.9c5.5-2.6,3.9,7.5,2.9,8.5C131.4,173.9,132.5,160.1,132.6,160.9Z" transform="translate(0 -0.3)"/><path class="p" d="M149.1,223.3c8.2.2,12.4-3.3,19.9-3.6-2.7.6-6.9,9.6-9.3,9.4Z" transform="translate(0 -0.3)"/><path class="at" d="M127.3,103.6a15.8,15.8,0,0,1,1.9,2.1c-2.3-4.6-18.7,5.4-21.2,6.2C109.8,106.1,120.6,103.1,127.3,103.6Z" transform="translate(0 -0.3)"/><path class="ai" d="M123.7,111.6c-8.6-.5-2.9-6.6-1.2-4.9.3.3-1.4,5.3,1.5,3.9.1-.1,1.9-5.2,2.4-3.8S129,111.2,123.7,111.6Z" transform="translate(0 -0.3)"/><path class="be" d="M131.5,109.7c.1,4.2-5.6-.4-2.5-2.4Q131,107.1,131.5,109.7Z" transform="translate(0 -0.3)"/><path class="bk" d="M117.6,111.6c-2.7-.5-.7-4.2,0-3.9S119.3,111.6,117.6,111.6Z" transform="translate(0 -0.3)"/><path class="bq" d="M168.7,110.4q-1.9,2.1-4,1c-3.3-8.1,30.5-3,27.2.8C190,114.5,170.9,110.8,168.7,110.4Z" transform="translate(0 -0.3)"/><path class="be" d="M169,110.1c2.2-2.9,3.1-.4,3.7-.5S168,113.4,169,110.1Z" transform="translate(0 -0.3)"/><path class="ai" d="M176.3,111.8c2.1,0,3.3-4,1.6-4s-1.3,2-2,2.5-.3-2.6-2.1-2.5-.5,4,1.6,4" transform="translate(0 -0.3)"/><path class="be" d="M183.3,110c-2.1-2.9-2.7-.7-3.9-.9S184.4,113.5,183.3,110Z" transform="translate(0 -0.3)"/></svg>
